<svg width="32" height="32" viewBox="0 0 32 32" fill="none" xmlns="http://www.w3.org/2000/svg">
<path d="M4 7.33333C4 18.7472 13.2528 28 24.6667 28C25.1816 28 25.6922 27.9812 26.1977 27.9441C26.7778 27.9017 27.0679 27.8804 27.332 27.7284C27.5506 27.6025 27.7581 27.3793 27.8677 27.152C28 26.8776 28 26.5575 28 25.9173V22.1609C28 21.6226 28 21.3534 27.9114 21.1226C27.8331 20.9188 27.706 20.7373 27.5412 20.5941C27.3546 20.432 27.1017 20.34 26.5957 20.156L26.5957 20.156L22.3199 18.6012C21.7313 18.3871 21.437 18.2801 21.1577 18.2983C20.9115 18.3143 20.6746 18.3983 20.4733 18.541C20.245 18.7029 20.0838 18.9714 19.7616 19.5085L19.7616 19.5085L18.6667 21.3333C15.1335 19.7332 12.2692 16.8652 10.6667 13.3333L12.4915 12.2384C13.0286 11.9162 13.2971 11.755 13.459 11.5267C13.6017 11.3254 13.6857 11.0885 13.7017 10.8423C13.7199 10.563 13.6129 10.2687 13.3988 9.68006L11.844 5.40428C11.66 4.89835 11.568 4.64538 11.4059 4.4588C11.2627 4.29399 11.0812 4.16686 10.8774 4.0886C10.6466 4 10.3774 4 9.83909 4H6.08268C5.4425 4 5.12241 4 4.84797 4.13234C4.62067 4.24194 4.39752 4.44935 4.2716 4.66804C4.11958 4.93209 4.09833 5.22216 4.05585 5.8023C4.01883 6.30781 4 6.81837 4 7.33333Z" stroke="white" stroke-width="2.5" stroke-linecap="round" stroke-linejoin="round"/>
</svg>
