<svg width="32" height="32" viewBox="0 0 32 32" fill="none" xmlns="http://www.w3.org/2000/svg">
<path d="M4.03714 10.6876L8.74773 13.3046C11.3947 14.7752 12.7182 15.5104 14.1198 15.7987C15.3603 16.0538 16.6397 16.0538 17.8802 15.7987C19.2818 15.5104 20.6053 14.7752 23.2523 13.3046L27.9629 10.6876M4.03714 10.6876C4 11.3125 4 12.0813 4 13.067V18.9337C4 21.1739 4 22.294 4.43597 23.1496C4.81947 23.9023 5.43139 24.5142 6.18404 24.8977C7.03969 25.3337 8.15979 25.3337 10.4 25.3337H21.6C23.8402 25.3337 24.9603 25.3337 25.816 24.8977C26.5686 24.5142 27.1805 23.9023 27.564 23.1496C28 22.294 28 21.1739 28 18.9337V13.067C28 12.0813 28 11.3125 27.9629 10.6876M4.03714 10.6876C4.0844 9.89231 4.19182 9.3302 4.43597 8.85103C4.81947 8.09838 5.43139 7.48646 6.18404 7.10297C7.03969 6.66699 8.15979 6.66699 10.4 6.66699H21.6C23.8402 6.66699 24.9603 6.66699 25.816 7.10297C26.5686 7.48646 27.1805 8.09838 27.564 8.85103C27.8082 9.3302 27.9156 9.89231 27.9629 10.6876" stroke="white" stroke-width="2.5" stroke-linecap="round" stroke-linejoin="round"/>
</svg>
