<svg width="167" height="43" viewBox="0 0 167 43" fill="none" xmlns="http://www.w3.org/2000/svg">
<path d="M2.60547 0.816287C5.37731 0.377628 9.00509 0 13.6288 0C19.3085 0 23.4682 1.25876 26.1041 3.52453C28.5479 5.53854 29.9999 8.62441 29.9999 12.4007C29.9999 16.2418 28.8119 19.2628 26.5681 21.4676C23.5322 24.5534 18.5805 26.125 12.9689 26.125C11.253 26.125 9.66905 26.064 8.34913 25.7474V42.7483H2.60547V0.816287ZM8.34913 21.2807C9.60506 21.5935 11.189 21.7193 13.1009 21.7193C20.0324 21.7193 24.2602 18.5076 24.2602 12.6524C24.2602 7.04906 20.1044 4.34082 13.7648 4.34082C11.253 4.34082 9.34107 4.53154 8.34913 4.78329V21.2807Z" fill="#5CA300"/>
<path d="M8.32139 15.6845H2.57373V9.84085C2.61773 9.70353 2.78172 9.27631 3.24569 8.99023C3.32969 8.93683 3.84966 8.6126 4.38562 8.76137C4.7816 8.87198 4.95759 9.17332 5.28957 9.62343C5.68955 10.1727 6.11752 10.947 6.5255 11.4429C6.89348 11.8892 7.73343 13.1861 8.33339 14.4754C8.32939 15.3374 8.32139 14.8149 8.32139 15.6845Z" fill="#506732"/>
<path d="M15.6289 21.5893C15.8569 21.555 16.0929 21.513 16.3369 21.4672C17.1088 21.3185 16.7008 21.4558 17.3328 21.2422C19.4367 22.1271 21.0166 23.2219 22.4605 24.2556C22.4605 24.2556 22.0125 24.6447 19.6087 25.4419C19.1407 24.9498 18.6527 24.4501 18.1448 23.9466C17.2928 23.1113 16.4529 22.3255 15.6289 21.5893Z" fill="#506732"/>
<path d="M2.60547 30.3281V31.8158C2.66147 32.0713 2.68546 33.0326 3.96539 34.6384C5.26931 36.2786 7.2412 36.6982 8.34913 37.011C8.34913 36.4236 8.34913 35.8362 8.34913 35.2487C5.99327 33.7954 4.99733 33.5704 2.60547 30.3281Z" fill="#506732"/>
<path d="M27.1564 42.6109H19.3889C17.213 41.1233 14.9692 39.6318 12.6573 38.1366C10.2774 36.5956 7.92557 35.1194 5.60571 33.7042C3.15385 31.6521 1.91793 29.5465 1.29796 28.2572C-1.0819 23.2794 0.382015 18.8165 1.20597 14.9258C2.57789 8.45654 4.62577 10.3485 4.62577 10.3485C5.40972 11.3174 6.61765 12.7897 8.16156 14.5863C8.65753 15.1623 9.02151 15.5781 9.06951 15.6315C11.1574 18.0155 12.9133 18.3435 17.461 22.2648C28.1124 31.4575 27.7644 39.6128 27.1564 42.6109Z" fill="#5CA300"/>
<path d="M6.62158 20.7051C6.95356 21.7617 7.40554 22.7839 7.89751 23.7795C8.39748 24.7713 8.94145 25.7439 9.55341 26.6747C10.7613 28.5475 12.1773 30.2869 13.7412 31.8775C15.3371 33.4834 16.905 35.1312 18.3929 36.8439C19.8808 38.5604 21.3167 40.315 22.6086 42.2146L21.2367 43.0004C20.1168 41.1275 18.8089 39.3118 17.4449 37.5496C16.081 35.7797 14.6331 34.0708 13.1412 32.3848C11.6373 30.6684 10.3094 28.8222 9.20543 26.8654C8.64546 25.8889 8.15749 24.8819 7.71352 23.8558C7.27754 22.8297 6.88957 21.7807 6.62158 20.7051Z" fill="white"/>
<path d="M53.36 11.92V34H49.36V14.864H45.744C45.04 14.864 44.528 15.024 44.208 15.344C43.888 15.664 43.7067 16.1867 43.664 16.912C43.5573 18.448 43.4187 19.8667 43.248 21.168C43.0987 22.4693 42.9067 23.6853 42.672 24.816C42.4373 25.9467 42.1493 27.024 41.808 28.048C41.4667 29.072 41.0613 30.0747 40.592 31.056C40.1227 32.016 39.5573 32.9973 38.896 34H35.408C36.4533 32.1867 37.2747 30.3093 37.872 28.368C38.4693 26.4053 38.9173 24.4107 39.216 22.384C39.536 20.3573 39.7707 18.32 39.92 16.272C39.984 14.928 40.432 13.872 41.264 13.104C42.1173 12.3147 43.248 11.92 44.656 11.92H53.36ZM37.808 33.776L37.456 38.832H34.608V33.776H37.808ZM56.176 31.056V34H34.608V31.056H56.176ZM56.176 33.776V38.832H53.328L53.008 33.776H56.176ZM66.216 17.904C68.7547 17.904 70.5787 18.352 71.688 19.248C72.7973 20.1227 73.3627 21.424 73.384 23.152C73.384 24.5813 73.0427 25.6693 72.36 26.416C71.6987 27.1413 70.568 27.504 68.968 27.504H59.976V25.104H67.912C68.5947 25.104 69.0427 24.912 69.256 24.528C69.4907 24.144 69.5973 23.6747 69.576 23.12C69.576 22.2453 69.3307 21.6373 68.84 21.296C68.3707 20.9547 67.5387 20.784 66.344 20.784C65.3627 20.784 64.5947 20.9227 64.04 21.2C63.4853 21.4773 63.0907 21.9787 62.856 22.704C62.6427 23.4293 62.536 24.4747 62.536 25.84C62.536 27.2907 62.6747 28.4107 62.952 29.2C63.2293 29.9893 63.6773 30.5333 64.296 30.832C64.936 31.1093 65.8 31.248 66.888 31.248C67.6773 31.248 68.5947 31.216 69.64 31.152C70.6853 31.088 71.6773 31.0027 72.616 30.896L73 33.36C72.4453 33.5947 71.784 33.7867 71.016 33.936C70.248 34.0853 69.4587 34.192 68.648 34.256C67.8587 34.3413 67.112 34.384 66.408 34.384C64.5093 34.384 62.9733 34.1067 61.8 33.552C60.648 32.976 59.8053 32.08 59.272 30.864C58.76 29.648 58.504 28.08 58.504 26.16C58.504 24.0907 58.7707 22.4587 59.304 21.264C59.8373 20.048 60.6587 19.184 61.768 18.672C62.8987 18.16 64.3813 17.904 66.216 17.904ZM86.6868 17.904C88.6708 17.904 90.0788 18.6187 90.9108 20.048C91.7641 21.4773 92.1908 23.5467 92.1908 26.256C92.1908 28.3253 91.9668 29.9573 91.5188 31.152C91.0921 32.3253 90.4414 33.168 89.5668 33.68C88.6921 34.1707 87.5934 34.416 86.2708 34.416C85.1828 34.416 84.1268 34.2667 83.1028 33.968C82.0788 33.648 81.1508 33.1573 80.3188 32.496L80.5748 30.576C81.4068 30.8107 82.1428 31.0133 82.7828 31.184C83.4441 31.3547 84.1801 31.44 84.9908 31.44C85.7588 31.44 86.3774 31.312 86.8468 31.056C87.3161 30.7787 87.6574 30.2667 87.8708 29.52C88.0841 28.7733 88.1908 27.696 88.1908 26.288C88.1908 24.9013 88.0948 23.824 87.9028 23.056C87.7108 22.288 87.3908 21.7547 86.9428 21.456C86.5161 21.136 85.9508 20.976 85.2468 20.976C84.4788 20.976 83.7534 21.1467 83.0708 21.488C82.3881 21.808 81.6094 22.288 80.7348 22.928L80.2548 20.88C80.7454 20.304 81.3321 19.792 82.0148 19.344C82.7188 18.896 83.4654 18.544 84.2548 18.288C85.0654 18.032 85.8761 17.904 86.6868 17.904ZM80.0948 18.288L80.5108 21.328L80.8308 21.776V31.92L80.6708 32.304C80.7348 32.9227 80.7774 33.5413 80.7988 34.16C80.8414 34.8 80.8521 35.4507 80.8308 36.112V40.24H76.9588V18.288H80.0948ZM102.966 17.904C105.505 17.904 107.329 18.352 108.438 19.248C109.547 20.1227 110.113 21.424 110.134 23.152C110.134 24.5813 109.793 25.6693 109.11 26.416C108.449 27.1413 107.318 27.504 105.718 27.504H96.726V25.104H104.662C105.345 25.104 105.793 24.912 106.006 24.528C106.241 24.144 106.347 23.6747 106.326 23.12C106.326 22.2453 106.081 21.6373 105.59 21.296C105.121 20.9547 104.289 20.784 103.094 20.784C102.113 20.784 101.345 20.9227 100.79 21.2C100.235 21.4773 99.8407 21.9787 99.606 22.704C99.3927 23.4293 99.286 24.4747 99.286 25.84C99.286 27.2907 99.4247 28.4107 99.702 29.2C99.9793 29.9893 100.427 30.5333 101.046 30.832C101.686 31.1093 102.55 31.248 103.638 31.248C104.427 31.248 105.345 31.216 106.39 31.152C107.435 31.088 108.427 31.0027 109.366 30.896L109.75 33.36C109.195 33.5947 108.534 33.7867 107.766 33.936C106.998 34.0853 106.209 34.192 105.398 34.256C104.609 34.3413 103.862 34.384 103.158 34.384C101.259 34.384 99.7233 34.1067 98.55 33.552C97.398 32.976 96.5553 32.08 96.022 30.864C95.51 29.648 95.254 28.08 95.254 26.16C95.254 24.0907 95.5207 22.4587 96.054 21.264C96.5873 20.048 97.4087 19.184 98.518 18.672C99.6487 18.16 101.131 17.904 102.966 17.904ZM120.749 18.128C122.434 18.128 123.767 18.2453 124.749 18.48C125.73 18.7147 126.434 19.1413 126.861 19.76C127.309 20.3573 127.533 21.2107 127.533 22.32C127.533 23.4293 127.266 24.272 126.733 24.848C126.221 25.424 125.357 25.7653 124.141 25.872V25.968C125.613 26.0747 126.637 26.48 127.213 27.184C127.81 27.888 128.109 28.8693 128.109 30.128C128.109 31.1947 127.885 32.0267 127.437 32.624C127.01 33.2213 126.317 33.648 125.357 33.904C124.418 34.1387 123.181 34.256 121.645 34.256C120.45 34.256 119.405 34.2453 118.509 34.224C117.613 34.224 116.781 34.2027 116.013 34.16C115.266 34.1387 114.487 34.1067 113.677 34.064L114.093 31.44C114.541 31.4613 115.383 31.4827 116.621 31.504C117.879 31.504 119.351 31.504 121.037 31.504C121.826 31.504 122.455 31.4507 122.925 31.344C123.415 31.216 123.757 30.992 123.949 30.672C124.162 30.352 124.269 29.904 124.269 29.328C124.269 28.4533 124.023 27.8667 123.533 27.568C123.042 27.248 122.167 27.088 120.909 27.088H114.061V24.752H120.909C121.655 24.752 122.242 24.6987 122.669 24.592C123.117 24.4853 123.437 24.2827 123.629 23.984C123.821 23.6853 123.917 23.2693 123.917 22.736C123.917 22.2453 123.81 21.8613 123.597 21.584C123.383 21.3067 123.031 21.1147 122.541 21.008C122.071 20.9013 121.421 20.848 120.589 20.848C119.586 20.8267 118.69 20.816 117.901 20.816C117.111 20.816 116.407 20.816 115.789 20.816C115.17 20.816 114.605 20.848 114.093 20.912L113.677 18.32C114.402 18.256 115.095 18.2133 115.757 18.192C116.439 18.1707 117.175 18.16 117.965 18.16C118.775 18.1387 119.703 18.128 120.749 18.128ZM117.325 18.32V34.064H113.677V18.32H117.325ZM138.523 24.048C140.272 24.048 141.637 24.208 142.619 24.528C143.621 24.8267 144.325 25.3493 144.731 26.096C145.157 26.8213 145.371 27.824 145.371 29.104C145.371 30.4267 145.157 31.4613 144.731 32.208C144.304 32.9547 143.632 33.4773 142.715 33.776C141.797 34.0533 140.603 34.192 139.131 34.192C138.021 34.192 137.061 34.1813 136.251 34.16C135.44 34.16 134.693 34.1387 134.011 34.096C133.349 34.0747 132.645 34.0427 131.899 34L132.283 31.344C132.667 31.3653 133.424 31.3867 134.555 31.408C135.685 31.4293 137.008 31.44 138.523 31.44C139.248 31.44 139.824 31.376 140.251 31.248C140.699 31.12 141.008 30.8747 141.179 30.512C141.371 30.1493 141.467 29.6373 141.467 28.976C141.467 28.3573 141.381 27.8773 141.211 27.536C141.04 27.1733 140.741 26.9173 140.315 26.768C139.909 26.6187 139.312 26.544 138.523 26.544H132.251V24.048H138.523ZM135.547 18.288V34H131.771V18.288H135.547ZM156.163 11.632C157.401 11.632 158.457 11.6427 159.331 11.664C160.227 11.664 161.038 11.6853 161.763 11.728C162.51 11.7707 163.299 11.8347 164.131 11.92L163.651 14.896C163.182 14.8533 162.297 14.8213 160.995 14.8C159.694 14.7787 158.105 14.768 156.227 14.768C155.31 14.768 154.585 14.8747 154.051 15.088C153.539 15.3013 153.166 15.6747 152.931 16.208C152.697 16.72 152.579 17.456 152.579 18.416C152.579 19.248 152.686 19.9413 152.899 20.496C153.113 21.0507 153.475 21.4667 153.987 21.744C154.521 22.0213 155.235 22.16 156.131 22.16H163.523L163.619 25.2C163.278 25.2213 162.894 25.2427 162.467 25.264C162.041 25.264 161.529 25.264 160.931 25.264C160.355 25.264 159.683 25.2747 158.915 25.296C158.147 25.296 157.241 25.296 156.195 25.296C155.513 25.296 154.969 25.456 154.563 25.776C154.158 26.0747 153.849 26.6187 153.635 27.408L151.875 34H147.619L149.571 27.248C149.763 26.5227 150.03 25.9467 150.371 25.52C150.713 25.072 151.086 24.7307 151.491 24.496C151.918 24.2613 152.323 24.112 152.707 24.048V23.856C151.683 23.728 150.862 23.4187 150.243 22.928C149.646 22.416 149.209 21.7547 148.931 20.944C148.675 20.1333 148.547 19.2053 148.547 18.16C148.547 16.5387 148.803 15.2587 149.315 14.32C149.849 13.36 150.67 12.6773 151.779 12.272C152.91 11.8453 154.371 11.632 156.163 11.632ZM164.131 11.92V34H160.099V11.92H164.131Z" fill="white"/>
</svg>
