<svg width="25" height="26" viewBox="0 0 25 26" fill="none" xmlns="http://www.w3.org/2000/svg">
<path d="M16.0525 6.47243L7.44272 14.8566C6.91577 15.3697 6.61973 16.0657 6.61973 16.7914C6.61973 17.517 6.91577 18.213 7.44272 18.7261C7.96967 19.2393 8.68437 19.5276 9.42959 19.5276C10.1748 19.5276 10.8895 19.2393 11.4165 18.7261L20.0263 10.342C21.0802 9.31575 21.6722 7.92381 21.6722 6.47243C21.6722 5.02105 21.0802 3.62912 20.0263 2.60284C18.9723 1.57656 17.5429 1 16.0525 1C14.5621 1 13.1327 1.57656 12.0788 2.60284L3.46897 10.987C1.88812 12.5264 1 14.6143 1 16.7914C1 18.9684 1.88812 21.0563 3.46897 22.5957C5.04983 24.1352 7.19393 25 9.42959 25C11.6653 25 13.8094 24.1352 15.3902 22.5957L24 14.2116" stroke="#717171" stroke-width="2" stroke-linecap="round" stroke-linejoin="round"/>
</svg>
