<svg width="329" height="57" viewBox="0 0 329 57" fill="none" xmlns="http://www.w3.org/2000/svg">
<g clip-path="url(#clip0_1_395)">
<path fill-rule="evenodd" clip-rule="evenodd" d="M44.2145 43.415C44.2145 41.002 47.3064 38.038 53.7608 38.038C54.1473 38.038 54.5338 38.038 54.9203 38.076C54.4179 42.693 50.7076 45.866 47.0745 45.866C45.3353 45.866 44.2145 45.068 44.2145 43.415ZM31.6922 18.145H31.7695L29.7598 36.404C27.5761 35.758 25.3538 35.283 23.1121 34.96L31.6922 18.145ZM17.7013 34.561C12.9088 34.561 7.88441 35.739 5.29492 38.57C3.84558 35.872 3.11125 32.851 3.16922 29.792C3.16922 21.66 8.54144 14.098 18.8607 9.291L17.5467 6.536C5.44951 11.951 0 20.881 0 29.792C0 33.991 1.00488 38.057 3.67166 41.895C3.59436 42.332 3.55571 42.769 3.55571 43.187C3.55571 46.436 5.60411 48.754 9.85551 48.754C14.3001 48.754 18.0878 45.733 20.368 39.786H17.0442C15.3823 43.757 12.6769 45.828 9.85551 45.828C7.65251 45.828 6.68629 44.84 6.68629 43.187C6.68629 40.356 10.1647 37.487 17.7399 37.487C21.7208 37.506 25.663 38.114 29.4506 39.33L28.9095 44.327H32.0014L34.9001 17.404C36.6779 17.024 38.4944 16.834 40.311 16.834C47.1132 16.834 48.9683 19.209 48.9683 21.755C48.9683 25.156 46.147 27.512 39.3834 28.291L40.3883 19.095L37.2963 19.209L34.5909 44.346H37.6828L39.0355 31.635C41.3352 31.027 43.7121 30.685 46.089 30.628C50.6496 30.628 53.7415 32.452 54.6691 35.188C54.3599 35.15 54.0507 35.15 53.7415 35.15C44.9682 35.15 41.0646 39.577 41.0646 43.472C41.0646 46.911 43.6541 48.811 47.0166 48.811C51.9057 48.811 57.2199 44.916 57.9736 38.532C60.2152 39.045 62.3602 39.919 64.312 41.097C59.0171 48.849 48.3113 53.922 35.4798 53.922C29.18 53.922 21.2956 52.592 16.078 49.039L14.4547 51.604C19.5951 55.29 27.8273 57 35.4991 57C56.331 57 71.0176 44.859 71.0176 29.849C71.0176 14.079 55.0556 2.698 35.5378 2.698C34.3397 2.698 33.4894 2.736 32.3299 2.812L32.6391 5.833C33.5667 5.795 34.5716 5.757 35.4991 5.757C52.9299 5.757 67.8484 16.15 67.8484 29.849C67.8484 32.87 67.172 35.853 65.8387 38.551C63.8675 37.297 61.0075 36.138 57.9542 35.568C57.2972 31.901 54.2439 28.766 48.3306 28.158C49.4901 27.531 50.4563 26.6 51.1327 25.479C51.809 24.358 52.1569 23.066 52.1762 21.755C52.1762 17.062 48.8137 13.889 40.3496 13.889C38.649 13.889 36.9678 14.041 35.2866 14.307L35.6151 11.096L32.4652 10.26L29.7598 15.542C25.3924 16.796 21.141 18.639 18.6288 20.045L20.0202 22.686C22.5517 21.394 25.1799 20.273 27.866 19.323L20.0589 34.637C19.2472 34.599 18.4742 34.561 17.7013 34.561ZM29.7984 7.258C29.7984 9.671 28.1752 11.267 25.7403 11.267C23.46 11.267 21.0251 9.899 21.0251 5.244C21.0831 3.477 21.3149 1.71 21.7401 0C25.9722 0.95 29.7984 3.933 29.7984 7.258Z" fill="#63C634"/>
<path fill-rule="evenodd" clip-rule="evenodd" d="M94.729 22.059C91.869 22.059 90.2457 23.465 89.9172 25.555H85.8397C86.4968 20.881 89.666 18.43 94.729 18.43C100.237 18.43 103.212 21.166 103.212 26.752V38.95H99.135V34.124C98.1108 37.069 95.9465 39.349 91.7531 39.349C87.9268 39.349 85.5112 37.335 85.5112 33.706C85.5112 29.108 89.8013 26.657 99.135 26.657V26.334C99.135 23.465 97.5118 22.059 94.729 22.059ZM92.7 35.91C96.8934 35.91 99.1543 33.06 99.1543 29.583C92.4294 29.583 89.8206 31.103 89.8206 33.516C89.8013 35.074 90.9028 35.91 92.7 35.91ZM106.73 32.376H110.981C111.464 34.466 112.855 35.758 115.967 35.758C119.638 35.758 120.566 34.466 120.566 33.022C120.566 31.654 119.503 30.609 116.682 30.609H113.261V27.189H116.083C118.981 27.189 119.909 26.22 119.909 24.776C119.909 23.294 118.633 22.078 115.909 22.078C112.855 22.078 111.754 23.617 111.387 25.251H107.135C107.541 21.109 110.807 18.449 115.986 18.449C121.706 18.449 124.199 21.071 124.199 24.13C124.199 26.182 122.943 27.911 120.605 28.519C123.213 29.089 124.856 30.894 124.856 33.155C124.856 36.423 122.247 39.406 115.967 39.406C109.995 39.368 107.135 36.518 106.73 32.376ZM129.9 34.827C128.547 32.775 128.102 30.039 128.102 26.562C128.102 16.815 131.697 12.635 140.258 11.628C143.04 11.305 144.509 10.982 144.78 9.97498H148.606C147.949 13.794 145.089 14.649 140.895 15.162C133.958 16.055 132.161 18.582 132.006 24.586C133.359 21.451 136.489 19.266 140.335 19.266C146.132 19.266 149.669 23.769 149.669 29.298C149.669 34.903 145.34 39.368 138.866 39.368C134.711 39.368 131.484 37.316 129.9 34.827ZM145.398 29.298C145.398 25.593 142.712 22.895 138.866 22.895C135.079 22.895 132.373 25.593 132.373 29.298C132.373 33.079 135.059 35.739 138.866 35.739C142.712 35.758 145.398 33.098 145.398 29.298ZM152.78 47.025V43.396C157.07 43.396 157.882 42.636 159.176 39.045L150.944 18.829H155.311L161.399 33.858L167.389 18.829H171.351L162.713 40.014C160.49 45.448 158.906 47.025 152.78 47.025ZM173.747 18.829H177.824V27.892L186.752 18.829H191.642L182.172 28.405L192.414 38.95H186.907L177.805 29.488V38.95H173.728V18.829H173.747ZM202.56 22.059C199.7 22.059 198.077 23.465 197.748 25.555H193.671C194.328 20.881 197.497 18.43 202.56 18.43C208.067 18.43 211.043 21.166 211.043 26.752V38.95H206.966V34.124C205.942 37.069 203.777 39.349 199.584 39.349C195.758 39.349 193.342 37.335 193.342 33.706C193.342 29.108 197.632 26.657 206.966 26.657V26.334C206.966 23.465 205.323 22.059 202.56 22.059ZM200.511 35.91C204.724 35.91 206.966 33.06 206.966 29.583C200.241 29.583 197.632 31.103 197.632 33.516C197.613 35.074 198.734 35.91 200.511 35.91ZM226.831 18.829H236.049C240.571 18.829 243.064 20.729 243.064 24.054C243.064 26.144 241.75 27.911 239.141 28.614C242.117 29.089 243.953 30.628 243.953 33.326C243.953 36.062 242.156 38.969 236.571 38.969H226.812V18.829H226.831ZM238.871 24.757C238.871 23.351 237.982 22.268 235.856 22.268H230.851V27.227H235.875C237.962 27.208 238.871 26.125 238.871 24.757ZM230.832 30.438V35.549H236.339C238.793 35.549 239.682 34.39 239.682 32.927C239.682 31.635 238.793 30.438 236.127 30.438H230.832ZM247.973 18.829H252.05V27.892L260.978 18.829H265.867L256.398 28.405L266.64 38.95H261.133L252.031 29.488V38.95H247.953V18.829H247.973ZM268.456 47.025C274.563 47.025 276.167 45.448 278.37 40.014L287.008 18.829H283.047L277.056 33.858L270.969 18.829H266.601L274.834 39.045C273.52 42.636 272.708 43.396 268.418 43.396V47.025H268.456ZM304.323 31.521H308.4C307.415 36.632 303.878 39.368 298.699 39.368C292.361 39.368 288.09 34.732 288.09 28.899C288.09 23.104 292.38 18.43 298.622 18.43C304.014 18.43 307.473 21.375 308.246 26.087H304.168C303.395 23.503 301.637 22.059 298.622 22.059C294.873 22.059 292.38 24.795 292.38 28.899C292.38 33.041 294.95 35.739 298.622 35.739C301.617 35.758 303.569 34.333 304.323 31.521ZM320.517 22.059C317.657 22.059 316.033 23.465 315.705 25.555H311.627C312.285 20.881 315.454 18.43 320.517 18.43C326.024 18.43 329 21.166 329 26.752V38.95H324.923V34.124C323.899 37.069 321.734 39.349 317.541 39.349C313.715 39.349 311.299 37.335 311.299 33.706C311.299 29.108 315.589 26.657 324.923 26.657V26.334C324.903 23.465 323.28 22.059 320.517 22.059ZM318.468 35.91C322.681 35.91 324.923 33.06 324.923 29.583C318.198 29.583 315.57 31.103 315.57 33.516C315.57 35.074 316.671 35.91 318.468 35.91Z" fill="#124F2E"/>
</g>
<defs>
<clipPath id="clip0_1_395">
<rect width="329" height="57" fill="white"/>
</clipPath>
</defs>
</svg>
