<svg width="371" height="71" viewBox="0 0 371 71" fill="none" xmlns="http://www.w3.org/2000/svg">
<path fill-rule="evenodd" clip-rule="evenodd" d="M36.3605 70.6473C56.152 70.9302 72.4221 55.1173 72.7245 35.3341C72.4318 15.5411 56.152 -0.262067 36.3605 0.0208295C16.5691 -0.262067 0.318496 15.5411 0.0161133 35.3341C0.318496 55.1271 16.5691 70.9302 36.3605 70.6473Z" fill="url(#paint0_radial_1_457)"/>
<path fill-rule="evenodd" clip-rule="evenodd" d="M305.101 16.0783C312.241 16.7221 318.425 11.2398 318.679 4.08936H311.451C310.719 6.99636 308.973 8.45961 305.101 8.45961C301.248 8.45961 299.248 6.9866 298.624 4.08936H291.396C291.698 11.2788 297.941 16.7416 305.101 16.0783Z" fill="black"/>
<path fill-rule="evenodd" clip-rule="evenodd" d="M156.728 49.5969V19.844H147.617V63.2052H157.098L175.427 32.9645V63.2052H184.527V19.844H175.046L156.728 49.5969Z" fill="black"/>
<path fill-rule="evenodd" clip-rule="evenodd" d="M116.628 54.4846C108.405 54.4846 103.547 48.6803 103.547 39.9593V35.4818C105.274 32.087 109.907 29.4141 116.628 29.4141C123.729 29.4141 129.211 32.6918 129.211 40.9251C129.201 49.1681 124.851 54.4846 116.628 54.4846ZM118.998 20.2054C112.16 19.903 105.742 23.5318 102.455 29.5409C102.913 19.7079 104.913 13.8548 116.618 12.333L134.819 9.90404L134.068 0.217285L115.116 2.77311C98.7871 4.94848 94.1831 17.1911 94.1831 36.4475C94.1831 53.275 102.035 64.0543 116.608 64.0543C130.82 64.0543 138.536 53.4018 138.536 40.9251C139.306 29.6385 130.303 20.1078 118.998 20.2054Z" fill="black"/>
<path fill-rule="evenodd" clip-rule="evenodd" d="M361.899 19.844V36.0861H344.195V19.844H335.094V63.2052H344.195V45.0413H361.899V63.2052H371V19.844H361.899Z" fill="black"/>
<path fill-rule="evenodd" clip-rule="evenodd" d="M295.873 49.5969V19.844H286.772V63.2052H296.254L314.572 32.9645V63.2052H323.673V19.844H314.201L295.873 49.5969Z" fill="black"/>
<path fill-rule="evenodd" clip-rule="evenodd" d="M200.885 46.3777C199.89 51.2162 198.514 53.2843 195.783 53.2843C194.642 53.3233 193.52 53.1965 192.408 52.9136V62.9808C193.823 63.6246 195.354 63.9075 196.885 63.8197C201.255 63.927 205.206 61.1761 206.61 57.04C207.752 53.6355 208.464 50.0944 208.737 46.5143C209.342 40.7198 209.644 34.896 209.615 29.0625H221.71V63.2344H230.791V19.8635H202.006C202.211 28.7113 201.831 37.5689 200.885 46.3777Z" fill="black"/>
<path fill-rule="evenodd" clip-rule="evenodd" d="M256.651 54.8542C252.408 54.8542 249.296 53.7617 249.296 49.9962C249.296 46.738 251.901 45.2845 256.397 43.4603L265.088 39.9485L265.001 51.6936C262.806 53.908 259.753 55.0493 256.651 54.8542ZM273.731 51.4692L273.857 34.2711C273.984 23.3649 267.127 18.8874 257.158 18.8874C248.487 18.2045 240.917 24.7404 240.332 33.4126H249.052C249.55 29.4131 252.778 28.0766 257.158 28.0766C261.616 28.0766 264.62 29.4131 265.079 33.8711L253.929 38.2609C246.331 41.2752 240.586 44.6797 240.586 51.8204C240.586 59.205 244.829 63.9362 253.305 63.9362C258.68 64.063 263.615 60.9609 265.81 56.0443C266.259 61.2535 269.819 63.5752 275.984 63.5752H278.481V55.2152H277.73C274.852 55.2152 273.731 54.1226 273.731 51.4692Z" fill="black"/>
<path fill-rule="evenodd" clip-rule="evenodd" d="M52.0158 61.6536C39.6668 68.5797 26.284 69.8088 17.7392 65.6727C29.103 72.2476 43.1003 72.3256 54.5519 65.9263C65.8766 59.7026 72.8509 47.7429 72.7338 34.8272C72.1583 44.0848 64.3452 54.7178 52.0158 61.6536ZM56.4442 7.15218C55.7029 5.94255 54.6982 4.90852 53.4789 4.15738C57.9951 6.47908 61.9554 9.72751 65.1157 13.6881C65.6717 14.3709 66.1887 15.0635 66.6667 15.7951C67.9737 18.0193 68.5785 20.5751 68.4517 23.1602C68.1298 32.5641 59.5461 43.9677 46.0169 51.5571C32.4877 59.1368 18.0319 60.6781 9.48712 56.2298C7.13634 55.0494 5.16598 53.2545 3.79063 51.0011L3.7321 50.9133C3.37119 50.2207 3.05906 49.5183 2.75667 48.8062C0.757049 44.1433 -0.169607 39.1194 0.0254781 34.0663C0.103512 35.5003 0.503438 36.8855 1.22525 38.1147C5.59517 45.47 21.4946 44.5042 36.7308 35.9588C51.9963 27.3939 60.8141 14.5075 56.4442 7.15218ZM40.9837 2.60633C40.8374 2.41123 40.691 2.21613 40.535 2.05029C38.4671 0.372423 35.7651 -0.320185 33.1412 0.138302C32.6438 0.177322 32.1073 0.226098 31.5708 0.313893C26.8595 0.908951 22.3335 2.42098 18.1879 4.74268C14.0716 7.02536 10.443 10.1177 7.53627 13.7954C7.21438 14.2051 6.912 14.6148 6.60961 15.0245C4.88311 16.9853 4.15154 19.6289 4.61974 22.1945C4.68802 22.4091 4.77581 22.6432 4.88311 22.8383C7.3802 27.0525 17.5051 25.9501 27.4545 20.341C37.4331 14.7611 43.4808 6.82051 40.9837 2.60633Z" fill="url(#paint1_radial_1_457)"/>
<defs>
<radialGradient id="paint0_radial_1_457" cx="0" cy="0" r="1" gradientUnits="userSpaceOnUse" gradientTransform="translate(36.372 35.3334) scale(36.3575 35.3205)">
<stop stop-color="#FEC700"/>
<stop offset="1" stop-color="#FFDB51"/>
</radialGradient>
<radialGradient id="paint1_radial_1_457" cx="0" cy="0" r="1" gradientUnits="userSpaceOnUse" gradientTransform="translate(36.3685 35.3327) scale(36.3618 35.3319)">
<stop stop-color="#050007"/>
<stop offset="0.48" stop-color="#050007"/>
<stop offset="1" stop-color="#50504F"/>
</radialGradient>
</defs>
</svg>
