<svg width="143" height="90" viewBox="0 0 143 90" fill="none" xmlns="http://www.w3.org/2000/svg">
<path fill-rule="evenodd" clip-rule="evenodd" d="M36.587 50.9843V51.0167C41.8888 43.105 44.5721 35.0638 44.6045 25.5569C44.6045 16.1067 41.7347 7.88734 36.587 0H36.5545C31.9012 7.41766 28.9423 15.1835 28.6667 23.8321C28.3586 33.5009 31.1392 43.016 36.587 50.9843ZM36.587 49.138V49.1056C35.1115 46.2146 34.3333 43.0726 34.3333 39.8659C34.3333 36.7239 35.1034 33.4281 36.587 30.6586V30.6262C38.0056 33.5495 38.8406 36.5943 38.8406 39.8659C38.8406 43.2265 38.0056 46.1174 36.587 49.138ZM30.6447 23.6134C31.1716 16.5926 33.2956 10.2843 36.5626 3.94367L36.5951 3.97606C40.3566 10.7459 42.3265 17.4024 42.6995 25.0953C42.8859 28.4803 42.5454 31.7761 41.8401 35.1043C41.9942 31.687 41.8077 28.4884 41.1916 25.1601C40.3566 20.5443 38.7596 16.4144 36.5951 12.2278L36.5626 12.1954C34.6494 15.9852 33.2064 19.7102 32.3066 23.7997C31.4716 27.6138 31.2851 31.1607 31.2851 35.0962C30.7339 31.2497 30.361 27.4923 30.6447 23.6134Z" fill="#0052BA"/>
<path fill-rule="evenodd" clip-rule="evenodd" d="M28.4561 60.3775C29.9964 58.8713 31.4475 58.102 33.6363 58.3126C37.1465 58.6527 39.4002 60.742 39.5867 64.224C39.9272 70.8724 31.107 74.9052 25.5944 74.5974C17.6093 74.2006 12.3074 69.0585 11.0428 61.7299C10.2726 57.268 11.9345 52.3687 15.0799 48.9838C18.1929 45.6556 22.4166 44.3356 26.7942 44.2385V24.261C11.8454 24.261 0.812052 34.853 0.0419095 49.3563C-0.793087 65.5197 10.9536 76.4842 25.9349 77.0025C33.8876 77.3102 39.838 74.3221 45.2938 69.18V51.9719H28.4561V60.3775Z" fill="#0052BA"/>
<path fill-rule="evenodd" clip-rule="evenodd" d="M49.2661 76.4281H54.268V55.9081H56.5703V52.0049H49.2661V76.4281Z" fill="#0052BA"/>
<path fill-rule="evenodd" clip-rule="evenodd" d="M59.1489 52.0049L56.7817 76.4281H61.2405L61.7512 71.95H63.6887L64.2318 76.4281H68.6825L66.291 52.0049H59.1489ZM61.9376 67.4718L62.6024 58.6613H62.8456L63.5428 67.4718H61.9376Z" fill="#0052BA"/>
<path fill-rule="evenodd" clip-rule="evenodd" d="M80.4202 63.8359V63.5687C81.5146 63.3905 81.4822 61.2365 81.4822 60.2728V56.3615C81.4822 53.3653 81.2714 52.0049 77.7855 52.0049H73.6349C70.1165 52.0049 69.9058 53.7621 69.9058 56.3615V59.5683H74.9076V56.815C74.9076 56.1753 75.4265 55.9971 75.694 55.9971C76.1804 55.9971 76.4803 56.3939 76.4803 56.815V59.7222C76.4803 61.2365 75.9939 61.5361 74.5753 61.5361H73.6349V65.8037H74.4861C76.3669 65.8037 76.4885 66.654 76.4885 67.4071V71.8609C76.4885 72.282 76.1885 72.6788 75.7021 72.6788C75.4346 72.6788 74.9157 72.4925 74.9157 71.8609V67.5609H69.9139V72.039C69.9139 75.5211 70.1246 76.4281 73.643 76.4281H77.7936C81.0039 76.4281 81.4903 75.8208 81.4903 72.039V67.1398C81.4741 66.2572 81.6281 63.8359 80.4202 63.8359Z" fill="#0052BA"/>
<path fill-rule="evenodd" clip-rule="evenodd" d="M83.7202 76.4281H88.7221V55.9647H90.2948V76.4281H95.2967V52.0049H83.7202V76.4281Z" fill="#0052BA"/>
<path fill-rule="evenodd" clip-rule="evenodd" d="M105.745 52.0049H97.8979V76.4281H102.9V68.1035H105.745C109.256 68.1035 109.466 66.5325 109.466 63.7468V56.3615C109.474 54.2156 109.264 52.0049 105.745 52.0049ZM104.473 63.0828C104.473 63.8683 104.075 64.3218 103.532 64.3218H102.9V55.9081H103.532C104.075 55.9081 104.473 56.3615 104.473 57.1146V63.0828Z" fill="#0052BA"/>
<path fill-rule="evenodd" clip-rule="evenodd" d="M119.446 52.0049H115.296C111.81 52.0049 111.599 54.0051 111.599 56.3049V72.0471C111.599 74.8895 111.81 76.4362 115.296 76.4362H119.446C122.965 76.4362 123.176 75.0758 123.176 72.0471V56.3615C123.167 54.0051 122.957 52.0049 119.446 52.0049ZM118.174 71.7394C118.174 72.1605 117.841 72.5249 117.379 72.5249C117.079 72.5249 116.593 72.3711 116.593 71.7394V56.7583C116.593 56.1267 117.079 55.9728 117.379 55.9728C117.841 55.9728 118.174 56.3372 118.174 56.7583V71.7394Z" fill="#0052BA"/>
<path fill-rule="evenodd" clip-rule="evenodd" d="M135.838 52.0049L133.836 63.1719L132.02 52.0049H125.502V76.4281H130.536V65.3502H130.715L132.376 76.4281H135.441L137.168 65.3502H137.346V76.4281H142.348V52.0049H135.838Z" fill="#0052BA"/>
<path fill-rule="evenodd" clip-rule="evenodd" d="M2.90316 83.3269C3.16258 83.3269 3.43821 83.5051 3.43821 83.8614V87.1006C3.43821 87.4812 3.16258 87.6593 2.90316 87.6674C2.63564 87.6674 2.36812 87.4812 2.36812 87.1006V83.8614C2.37622 83.5051 2.63564 83.3269 2.90316 83.3269ZM0.835938 83.9667V86.8333C0.835938 88.1047 1.48448 88.8173 2.90316 88.8173C4.33806 88.8173 4.97038 88.1047 4.97038 86.8333V83.9748C4.97038 82.9787 4.35427 82.1689 2.91127 82.1689C1.46826 82.1689 0.835938 82.9625 0.835938 83.9667Z" fill="#A6A7A7"/>
<path fill-rule="evenodd" clip-rule="evenodd" d="M6.933 83.5944H5.7251V82.3149H9.47042V83.5944H8.34358V88.688H6.933V83.5944Z" fill="#A6A7A7"/>
<path fill-rule="evenodd" clip-rule="evenodd" d="M10.2964 82.3149H11.7637V84.8496L12.8338 82.3149H14.5119L13.0932 85.133L14.5119 88.688H12.8905L12.1853 86.4692L11.7637 87.2061V88.688H10.2964V82.3149Z" fill="#A6A7A7"/>
<path fill-rule="evenodd" clip-rule="evenodd" d="M16.8474 85.0601V83.4567H17.0987C17.5446 83.4567 17.8527 83.6106 17.8527 84.2341C17.8608 84.8658 17.5041 85.052 17.1311 85.052H16.8474V85.0601ZM15.3071 88.688H16.8474V86.2019H17.5365C18.4363 86.2019 19.3929 85.8294 19.3929 84.2584C19.3929 82.6389 18.4201 82.3149 17.5365 82.3149H15.3071V88.688Z" fill="#A6A7A7"/>
<path fill-rule="evenodd" clip-rule="evenodd" d="M20.3169 82.3149H21.8572V84.801H22.5463C23.4542 84.801 24.4027 85.1816 24.4027 86.7526C24.4027 88.3722 23.4299 88.6961 22.5463 88.6961H20.3169V82.3149ZM21.8572 85.9509V87.5462H22.1004C22.5463 87.5462 22.8624 87.3923 22.8624 86.7688C22.8705 86.129 22.5138 85.9509 22.1328 85.9509H21.8572ZM25.0269 88.688H26.5591V82.3149H25.0269V88.688Z" fill="#A6A7A7"/>
<path fill-rule="evenodd" clip-rule="evenodd" d="M28.5692 83.5944H27.3613V82.3149H31.1148V83.5944H29.9879V88.688H28.5692V83.5944Z" fill="#A6A7A7"/>
<path fill-rule="evenodd" clip-rule="evenodd" d="M33.9119 83.3269C34.1633 83.3269 34.4389 83.5051 34.4389 83.8614V87.1006C34.4389 87.4812 34.1633 87.6593 33.9119 87.6674C33.6444 87.6674 33.3769 87.4812 33.3769 87.1006V83.8614C33.3769 83.5051 33.6444 83.3269 33.9119 83.3269ZM31.8447 83.9667V86.8333C31.8447 88.1047 32.4933 88.8173 33.9201 88.8173C35.3468 88.8173 35.9873 88.1047 35.9873 86.8333V83.9748C35.9873 82.9787 35.3712 82.1689 33.9282 82.1689C32.4689 82.1689 31.8447 82.9625 31.8447 83.9667Z" fill="#A6A7A7"/>
<path fill-rule="evenodd" clip-rule="evenodd" d="M37.0327 82.3149H40.6078V83.5215H38.5649V84.7524H40.4538V85.959H38.5649V87.4814H40.6078V88.688H37.0327V82.3149Z" fill="#A6A7A7"/>
<path fill-rule="evenodd" clip-rule="evenodd" d="M45.5292 86.2667L45.9345 83.4648L46.348 86.2667H45.5292ZM43.6484 88.688H45.1725L45.3671 87.4085H46.5426L46.7695 88.688H48.2774L46.8668 82.3149H45.0347L43.6484 88.688Z" fill="#A6A7A7"/>
<path fill-rule="evenodd" clip-rule="evenodd" d="M49.0142 82.3149H50.4734V84.8496L51.5516 82.3149H53.2216L51.811 85.133L53.2216 88.688H51.6164L50.903 86.4692L50.4734 87.2061V88.688H49.0142V82.3149Z" fill="#A6A7A7"/>
<path fill-rule="evenodd" clip-rule="evenodd" d="M56.5628 87.4085V82.3149H58.095V87.4085H58.4355V89.9998H56.9276V88.688H54.0254V82.3149H55.5657V87.4085H56.5628Z" fill="#A6A7A7"/>
<path fill-rule="evenodd" clip-rule="evenodd" d="M63.2992 88.688H61.84V87.2061C61.84 86.5177 62.0426 85.4812 62.1075 84.8091L60.7861 88.688H59.2944V82.3149H60.778V83.9021C60.778 84.5985 60.5834 85.6027 60.5429 86.3153L61.84 82.3149H63.2992V88.688Z" fill="#A6A7A7"/>
<path fill-rule="evenodd" clip-rule="evenodd" d="M66.3956 83.3269C66.6551 83.3269 66.9226 83.5051 66.9226 83.8614V87.1006C66.9226 87.4812 66.6551 87.6593 66.3956 87.6674C66.1281 87.6674 65.8606 87.4812 65.8606 87.1006V83.8614C65.8606 83.5051 66.12 83.3269 66.3956 83.3269ZM64.3203 83.9667V86.8333C64.3203 88.1047 64.977 88.8173 66.3956 88.8173C67.8305 88.8173 68.4629 88.1047 68.4629 86.8333V83.9748C68.4629 82.9787 67.8468 82.1689 66.4037 82.1689C64.9526 82.1689 64.3203 82.9625 64.3203 83.9667Z" fill="#A6A7A7"/>
<path fill-rule="evenodd" clip-rule="evenodd" d="M71.0496 88.688H69.5093V82.3149H71.0496V84.7281H72.0548V82.3149H73.587V88.688H72.0548V85.9995H71.0496V88.688Z" fill="#A6A7A7"/>
<path fill-rule="evenodd" clip-rule="evenodd" d="M74.7378 82.3149H78.3048V83.5215H76.27V84.7524H78.1507V85.959H76.27V87.4814H78.3048V88.688H74.7378V82.3149Z" fill="#A6A7A7"/>
<path fill-rule="evenodd" clip-rule="evenodd" d="M80.7763 85.0601V83.4567H81.0276C81.4735 83.4567 81.7816 83.6106 81.7816 84.2341C81.7897 84.8658 81.433 85.052 81.0519 85.052H80.7763V85.0601ZM79.2441 88.688H80.7763V86.2019H81.4735C82.3815 86.2019 83.3299 85.8294 83.3299 84.2584C83.3299 82.6389 82.3652 82.3149 81.4735 82.3149H79.2441V88.688Z" fill="#A6A7A7"/>
<path fill-rule="evenodd" clip-rule="evenodd" d="M85.7957 88.688H84.2554V82.3149H85.7957V84.7281H86.7928V82.3149H88.3331V88.688H86.7928V85.9995H85.7957V88.688Z" fill="#A6A7A7"/>
<path fill-rule="evenodd" clip-rule="evenodd" d="M91.4539 83.3269C91.7134 83.3269 91.989 83.5051 91.989 83.8614V87.1006C91.989 87.4812 91.7134 87.6593 91.4539 87.6674C91.1864 87.6674 90.927 87.4812 90.927 87.1006V83.8614C90.9189 83.5051 91.1864 83.3269 91.4539 83.3269ZM89.3867 83.9667V86.8333C89.3867 88.1047 90.0272 88.8173 91.4539 88.8173C92.8969 88.8173 93.5212 88.1047 93.5212 86.8333V83.9748C93.5212 82.9787 92.9132 82.1689 91.4621 82.1689C90.0109 82.1689 89.3867 82.9625 89.3867 83.9667Z" fill="#A6A7A7"/>
<path fill-rule="evenodd" clip-rule="evenodd" d="M94.5669 82.3149H98.142V83.5215H96.1072V84.7524H97.9879V85.959H96.1072V87.4814H98.142V88.688H94.5669V82.3149Z" fill="#A6A7A7"/>
<path fill-rule="evenodd" clip-rule="evenodd" d="M103.606 83.3269C103.865 83.3269 104.133 83.5051 104.133 83.8614V87.1006C104.133 87.4812 103.857 87.6593 103.606 87.6674C103.338 87.6674 103.071 87.4812 103.071 87.1006V83.8614C103.071 83.5051 103.338 83.3269 103.606 83.3269ZM101.539 83.9667V86.8333C101.539 88.1047 102.187 88.8173 103.606 88.8173C105.041 88.8173 105.673 88.1047 105.673 86.8333V83.9748C105.673 82.9787 105.057 82.1689 103.614 82.1689C102.171 82.1689 101.539 82.9625 101.539 83.9667Z" fill="#A6A7A7"/>
<path fill-rule="evenodd" clip-rule="evenodd" d="M106.727 82.3149H110.196V83.4567H108.259V84.7929H108.948C109.856 84.7929 110.804 85.1735 110.804 86.7445C110.804 88.3641 109.84 88.688 108.948 88.688H106.727V82.3149ZM108.259 85.9509V87.5462H108.51C108.956 87.5462 109.264 87.3923 109.264 86.7688C109.272 86.129 108.915 85.9509 108.542 85.9509H108.259Z" fill="#A6A7A7"/>
<path fill-rule="evenodd" clip-rule="evenodd" d="M111.802 82.3149H113.343V87.4085H114.356V82.3149H115.839V87.4085H116.853V82.3149H118.385V87.4085H118.709V89.9998H117.209V88.688H111.802V82.3149Z" fill="#A6A7A7"/>
<path fill-rule="evenodd" clip-rule="evenodd" d="M119.608 82.3149H123.175V83.5215H121.14V84.7524H123.021V85.959H121.14V87.4814H123.175V88.688H119.608V82.3149Z" fill="#A6A7A7"/>
<path fill-rule="evenodd" clip-rule="evenodd" d="M128.096 86.1693V86.7685C128.096 88.21 127.44 88.8335 126.013 88.8335C124.602 88.8335 123.938 88.2181 123.938 86.7523V83.9748C123.938 82.9787 124.562 82.1689 126.013 82.1689C127.456 82.1689 128.096 82.9868 128.096 83.9829V84.5578H126.564V83.8371C126.564 83.497 126.248 83.3431 126.005 83.3431C125.745 83.3431 125.486 83.4889 125.486 83.8128V87.0115C125.486 87.4893 125.68 87.6755 126.005 87.6755C126.337 87.6755 126.564 87.4893 126.564 87.0115V86.1693H128.096Z" fill="#A6A7A7"/>
<path fill-rule="evenodd" clip-rule="evenodd" d="M130.042 83.5944H128.834V82.3149H132.588V83.5944H131.461V88.688H130.042V83.5944Z" fill="#A6A7A7"/>
<path fill-rule="evenodd" clip-rule="evenodd" d="M134.898 83.4567H135.352C135.79 83.4567 135.96 83.6754 135.96 84.056C135.96 84.5581 135.79 84.7848 135.352 84.7848H134.898V83.4567ZM134.898 85.9266H135.287C135.83 85.9266 136 86.2181 136 86.7526C136 87.3275 135.83 87.5462 135.254 87.5462H134.906V85.9266H134.898ZM135.563 88.688C136.868 88.688 137.508 87.9997 137.508 86.8093C137.508 85.9185 137.176 85.5136 136.576 85.2626C136.908 85.1978 137.443 84.7848 137.443 83.9102C137.443 82.7684 136.616 82.3149 135.879 82.3149H133.422V88.688H135.563Z" fill="#A6A7A7"/>
<path fill-rule="evenodd" clip-rule="evenodd" d="M140.403 83.3269C140.67 83.3269 140.938 83.5051 140.938 83.8614V87.1006C140.938 87.4812 140.662 87.6593 140.403 87.6674C140.135 87.6674 139.868 87.4812 139.868 87.1006V83.8614C139.868 83.5051 140.135 83.3269 140.403 83.3269ZM138.335 83.9667V86.8333C138.335 88.1047 138.984 88.8173 140.403 88.8173C141.846 88.8173 142.47 88.1047 142.47 86.8333V83.9748C142.47 82.9787 141.862 82.1689 140.411 82.1689C138.96 82.1689 138.335 82.9625 138.335 83.9667Z" fill="#A6A7A7"/>
</svg>
