<svg width="67" height="87" viewBox="0 0 67 87" fill="none" xmlns="http://www.w3.org/2000/svg">
<path fill-rule="evenodd" clip-rule="evenodd" d="M33.5528 42.1008C29.5068 42.1008 26.2274 45.0876 26.2274 48.7574C26.2274 52.4349 29.5068 55.4192 33.5528 55.4192C37.5931 55.4192 40.8698 52.4349 40.8698 48.7574C40.8726 45.0876 37.5959 42.1008 33.5528 42.1008ZM48.2878 0C50.3767 0 52.0698 1.53928 52.0698 3.43789V6.81972C52.0698 11.3738 50.1465 15.6578 46.6593 18.8766C44.2081 21.16 41.0916 22.7451 37.6774 23.4715L37.3348 23.5403V32.2815L37.6774 32.3529C41.0916 33.0665 44.1941 34.6593 46.6705 36.9478C50.1493 40.164 52.0698 44.4403 52.0698 48.9944V52.3814C52.0698 54.28 50.3767 55.8218 48.2878 55.8218C46.196 55.8218 44.5058 54.28 44.5058 52.3814V48.9944C44.5058 46.265 43.3574 43.7038 41.2713 41.7695C39.2048 39.8633 36.4616 38.8031 33.5556 38.7954C30.6524 38.8031 27.9092 39.8607 25.8343 41.7695C23.7566 43.7038 22.6054 46.2676 22.6054 48.9944V52.3814C22.6054 54.28 20.9096 55.8218 18.8262 55.8218C16.7429 55.8218 15.0358 54.28 15.0358 52.3814V48.9944C15.033 44.4531 16.9535 40.1691 20.4463 36.9478C22.9059 34.6567 26.014 33.0639 29.4198 32.3529L29.768 32.2815V23.5403L29.4198 23.4715C26.0056 22.7477 22.8974 21.1625 20.4463 18.8766C16.9506 15.6527 15.0302 11.3637 15.033 6.81972V3.43789C15.033 1.53928 16.7401 0 18.8234 0C20.9067 0 22.6026 1.53928 22.6026 3.43789V6.81972C22.6026 9.54404 23.7538 12.1206 25.8315 14.0574C27.9064 15.9637 30.6496 17.0136 33.5584 17.0162C36.4588 17.0136 39.1963 15.9611 41.2684 14.0574C43.3546 12.1206 44.503 9.54659 44.503 6.81972V3.43789C44.5058 1.53928 46.1932 0 48.2878 0Z" fill="#00AEEF"/>
<path fill-rule="evenodd" clip-rule="evenodd" d="M14.2746 69.3212C13.4463 68.8905 12.3934 69.1453 11.9105 69.8946L7.56969 76.7245L3.22612 69.8946C2.746 69.1428 1.69029 68.8905 0.864817 69.3212C0.0393425 69.7519 -0.247047 70.7203 0.233076 71.4696L5.84013 80.2771V85.1956C5.84013 86.0621 6.61787 86.7655 7.56688 86.7655C8.52432 86.7655 9.29926 86.0621 9.29926 85.1956V80.2771L14.9035 71.467C15.3864 70.7177 15.1 69.7519 14.2746 69.3212ZM48.8743 69.1173H37.4272C36.4753 69.1173 35.706 69.8181 35.706 70.6872C35.706 71.5486 36.4781 72.2519 37.4272 72.2519H41.4001V85.1447C41.4001 86.0112 42.1807 86.7222 43.1409 86.7222C43.6154 86.7222 44.045 86.5565 44.3623 86.2533C44.7048 85.9551 44.8789 85.555 44.8789 85.1447L44.8705 72.2519H48.8771C49.8345 72.2519 50.6067 71.5486 50.6067 70.6872C50.6039 69.8181 49.8317 69.1173 48.8743 69.1173ZM30.8571 78.0828C30.8571 74.0996 29.1528 72.0786 25.7835 72.0659C21.0889 72.0659 20.387 75.8096 20.3645 78.037C20.3533 79.8566 20.8334 81.3322 21.7235 82.3082C22.6248 83.2664 23.9641 83.771 25.7357 83.7736H25.7638C29.5178 83.771 30.8571 80.8301 30.8571 78.0828ZM34.4229 78.0828C34.4229 82.5248 31.7499 87 25.7638 87H25.7301C22.8971 87 20.5695 86.0952 18.9944 84.375C17.5596 82.8077 16.7959 80.6211 16.8071 78.0242C16.824 72.4431 20.3421 68.8268 25.7638 68.8268C31.1912 68.8446 34.4229 72.308 34.4229 78.0828ZM60.5657 79.8031L58.2128 74.6475L55.8768 79.8031H60.5657ZM66.403 84.6222C66.754 85.4046 66.3525 86.2991 65.4961 86.6304C65.2968 86.7145 65.0721 86.7477 64.8475 86.7477C64.1568 86.7477 63.556 86.3781 63.278 85.8098L61.9527 82.8638H54.4842L53.1561 85.8073C52.8051 86.5642 51.7803 86.9464 50.9436 86.6304C50.0872 86.3017 49.6745 85.3944 50.0311 84.6222L56.6208 70.1494C57.0195 69.2906 57.7131 69.0944 58.2128 69.0944C58.926 69.0944 59.51 69.4614 59.8132 70.1545L66.403 84.6222Z" fill="#00AEEF"/>
</svg>
