<svg width="179" height="57" viewBox="0 0 179 57" fill="none" xmlns="http://www.w3.org/2000/svg">
<g clip-path="url(#clip0_1_400)">
<path d="M179 0H0V57H179V0Z" fill="#E30613"/>
<path fill-rule="evenodd" clip-rule="evenodd" d="M166.963 18.7102H150.186V23.1587H156.053V37.861H161.072V23.1587H166.963V18.7102ZM135.633 18.7141H130.615V37.8649H134.812L142.803 26.9483V37.8649H147.826V18.7141H143.493L135.637 29.5137V18.7141H135.633ZM114.442 18.7102H109.424V37.861H114.442V30.3636H121.899V37.8649H126.918V18.7102H121.899V25.8566H114.442V18.7102ZM106.757 18.7102H94.7163V37.861H99.735V23.1587H106.754V18.7102H106.757ZM80.4197 31.1278L82.7527 25.1198L85.0858 31.1278H80.4197ZM80.4701 18.7102L72.7502 37.861H77.8038L78.8502 35.1786H86.6592L87.7017 37.861H92.8367L85.1129 18.7102H80.4701ZM55.7795 18.7102H50.8267V37.861H55.8454V26.4843L60.8602 32.4963L65.8673 26.4843V37.8649H70.8899V18.7102H65.9371L60.8602 25.2952L55.7795 18.7102Z" fill="white"/>
<path fill-rule="evenodd" clip-rule="evenodd" d="M20.598 18.3242H40.9442V13.8212H20.598C18.2495 13.8212 16.0404 14.7452 14.374 16.4216C12.7037 18.0981 11.7891 20.3243 11.7891 22.6831V34.2936L12.5797 34.1727C14.5251 33.8725 16.0288 32.2545 16.2381 30.2467L16.2652 22.6831C16.2652 21.5251 16.7187 20.4335 17.5403 19.603C18.3619 18.7804 19.447 18.3242 20.598 18.3242ZM40.9442 34.2312C40.9442 36.5939 40.0257 38.8162 38.3593 40.4926C36.6928 42.1691 34.4799 43.0931 32.1353 43.0931H11.7891V38.59H32.1353C33.2863 38.59 34.3714 38.1339 35.193 37.3074C36.0146 36.4808 36.468 35.3892 36.468 34.2312L36.4719 27.0536C36.4719 24.9171 38.0531 23.0612 40.1536 22.7416L40.9442 22.6207V34.2312ZM23.71 34.3131H20.1988V22.8507H23.5278L26.3647 26.5351L29.2015 22.8507H32.5306V34.3131H29.0194V28.4883L26.3686 31.6736L23.7177 28.4883V34.3131H23.71Z" fill="#FEFEFE"/>
</g>
<defs>
<clipPath id="clip0_1_400">
<rect width="179" height="57" fill="white"/>
</clipPath>
</defs>
</svg>
