<svg width="107" height="91" viewBox="0 0 107 91" fill="none" xmlns="http://www.w3.org/2000/svg">
<path fill-rule="evenodd" clip-rule="evenodd" d="M83.4343 34.4218V27.177L86.8021 26.2695V33.5146L83.4343 34.4218ZM93.3192 51.0775C94.0374 50.889 94.621 50.148 94.621 49.4243V19.1147C94.621 18.3909 94.0387 17.9563 93.3192 18.1455L79.1534 21.9632C75.6242 22.9142 75.6152 25.177 75.6152 28.8814V33.8702C75.6152 35.7542 76.2227 36.7566 77.2075 37.4859C78.1917 38.218 79.1294 38.7062 79.1294 38.7062C79.1294 38.7062 78.2012 39.8101 77.3678 40.8005C76.5326 41.789 75.6152 43.5205 75.6152 45.1924V55.8486L83.4343 53.7413V40.8476L86.8021 39.9402V52.8338L93.3192 51.0775Z" fill="#E31B40"/>
<path fill-rule="evenodd" clip-rule="evenodd" d="M72.9159 41.0754L69.8908 41.8903V45.0458L68.0245 48.9541V42.3937L65.0004 43.2091C64.666 43.2961 64.3955 43.6407 64.3955 43.9759V58.8724L68.0245 57.894V54.7073L69.8908 50.8292V57.3908L73.5203 56.4133V41.5247C73.5203 41.1891 73.2493 40.9882 72.9159 41.0754Z" fill="#E31B40"/>
<path fill-rule="evenodd" clip-rule="evenodd" d="M56.6972 58.0516L58.1368 48.0248L59.0172 47.7876V57.4263L56.6972 58.0516ZM62.624 56.4544V44.453C62.624 44.1192 62.3543 43.9203 62.0219 44.012L57.8098 45.1472C57.8098 45.1472 56.506 45.5781 55.6508 46.4168C55.1425 46.9159 54.7222 47.5289 54.5332 48.8552C54.4061 49.7486 53.6003 55.4184 53.0872 59.0243L52.446 59.1971L51.5229 62.3421L63.2093 59.1927V56.2963L62.624 56.4544Z" fill="#E31B40"/>
<path fill-rule="evenodd" clip-rule="evenodd" d="M48.8253 54.8181L47.2659 55.2381V50.954L48.8253 50.5337V54.8181ZM51.8492 46.7532L46.9261 48.0805C46.9261 48.0805 45.5243 48.3879 44.6048 49.4569C43.5531 50.6774 43.6384 51.6565 43.6384 51.6565V63.854C43.6384 64.1897 43.9198 64.3888 44.2534 64.3011L47.2659 63.4888V58.21C47.2659 58.21 48.0606 57.9964 49.2454 57.6775C50.8383 57.2477 52.4538 55.4206 52.4538 53.5236V47.208C52.4538 46.8725 52.1828 46.6658 51.8492 46.7532Z" fill="#E31B40"/>
<path fill-rule="evenodd" clip-rule="evenodd" d="M35.7217 60.9045L36.7436 53.789L37.7453 53.5195V60.3593L35.7217 60.9045ZM40.7486 49.7447L36.4154 50.9123C36.4154 50.9123 35.1121 51.3485 34.2571 52.1874C33.7493 52.6859 33.3291 53.2983 33.1402 54.624C32.9517 55.9505 31.2668 67.8002 31.2668 67.8002L34.8708 66.8289L35.3031 63.8163L37.7453 63.1586V66.0543L41.35 65.0834V50.1903C41.35 49.8573 41.0807 49.6527 40.7486 49.7447Z" fill="#E31B40"/>
<path fill-rule="evenodd" clip-rule="evenodd" d="M26.3235 59.8418L24.648 60.2933V57.0487L26.3235 56.597V59.8418ZM26.3235 66.2359L24.648 66.6881V63.2649L26.3235 62.814V66.2359ZM29.952 57.8254V53.2665C29.952 52.931 29.6804 52.7296 29.3473 52.8167L24.308 54.1746C24.308 54.1746 22.9064 54.4826 21.9864 55.5514C20.9349 56.7723 21.0205 57.7519 21.0205 57.7519V70.5617L28.3096 68.5967C29.9468 68.1669 29.952 67.1056 29.952 65.3865V63.0796C29.952 62.2048 29.6693 61.7396 29.2128 61.4013C28.7562 61.0618 28.3207 60.8352 28.3207 60.8352C28.3207 60.8352 28.7516 60.3228 29.1394 59.863C29.5257 59.404 29.952 58.6017 29.952 57.8254Z" fill="#E31B40"/>
<path fill-rule="evenodd" clip-rule="evenodd" d="M19.7926 59.0349L19.7918 56.0036C19.7918 55.6677 19.5207 55.4676 19.1866 55.5555L12.5476 57.3449C12.2137 57.4323 11.9434 57.7755 11.9434 58.1117V58.1132V72.3967C11.9434 72.7316 12.2137 72.9329 12.5476 72.8456L15.5708 72.0306V60.1725L19.7926 59.0349Z" fill="#E31B40"/>
<path fill-rule="evenodd" clip-rule="evenodd" d="M68.1859 33.9116L69.124 27.3804L70.0429 27.1327V33.411L68.1859 33.9116ZM72.8 23.675L68.8223 24.7471C68.8223 24.7471 67.6267 25.1399 66.8412 25.9097C66.3749 26.3672 65.9888 26.9298 65.8157 28.147C65.6428 29.3641 64.0967 40.2415 64.0967 40.2415L67.4044 39.3497L67.8014 36.5853L70.0429 35.9814V38.639L73.3515 37.747V24.077C73.3515 23.771 73.105 23.5908 72.8 23.675Z" fill="#0C54A0"/>
<path fill-rule="evenodd" clip-rule="evenodd" d="M57.5044 39.3607L58.8266 30.1555L59.6338 29.938V38.7867L57.5044 39.3607ZM62.9416 37.8953V26.8825C62.9416 26.5769 62.6944 26.3965 62.3901 26.4806L58.5253 27.5221C58.5253 27.5221 57.3292 27.9147 56.5442 28.685C56.0781 29.1427 55.6916 29.7051 55.519 30.9222C55.4021 31.742 54.6629 36.9443 54.1925 40.2534L53.604 40.4117L52.7563 43.2972L63.4796 40.4074V37.7501L62.9416 37.8953Z" fill="#0C54A0"/>
<path fill-rule="evenodd" clip-rule="evenodd" d="M47.8487 33.1142L49.4977 32.6699V41.5183L47.8487 41.963V33.1142ZM45.5657 31.6341C44.4599 32.7361 44.5404 33.8712 44.5404 33.8712V44.9934C44.5404 44.9934 44.5587 45.2218 44.6827 45.312C44.8373 45.4252 45.0601 45.3716 45.0601 45.3716L49.7899 44.0963C49.7899 44.0963 51.0762 43.8159 51.9199 42.8356C52.8846 41.7158 52.806 40.8167 52.806 40.8167V29.6133C52.806 29.3074 52.559 29.128 52.2548 29.2119L47.547 30.481C47.547 30.481 46.3458 30.8583 45.5657 31.6341Z" fill="#0C54A0"/>
<path fill-rule="evenodd" clip-rule="evenodd" d="M33.7468 48.4214L37.0545 47.53L38.774 35.5606L39.6932 35.3131V46.8188L43.0013 45.9272V32.2571C43.0013 31.9512 42.7543 31.7712 42.4493 31.8555L38.4727 32.9277C38.4727 32.9277 37.2764 33.32 36.4914 34.09C36.0247 34.5476 35.639 35.1102 35.466 36.3273C35.2931 37.5444 33.7468 48.4214 33.7468 48.4214Z" fill="#0C54A0"/>
<path fill-rule="evenodd" clip-rule="evenodd" d="M28.364 38.3655L30.0132 37.921V46.7698L28.364 47.2142V38.3655ZM26.0817 36.8853C24.9755 37.9873 25.0565 39.1225 25.0565 39.1225V50.2444C25.0565 50.2444 25.0743 50.4728 25.1983 50.563C25.3536 50.677 25.5758 50.6229 25.5758 50.6229L30.3059 49.348C30.3059 49.348 31.5918 49.0666 32.4356 48.0872C33.3999 46.9666 33.3218 46.0679 33.3218 46.0679V34.8646C33.3218 34.5585 33.0746 34.3793 32.7703 34.4634L28.0623 35.7323C28.0623 35.7323 26.8611 36.1096 26.0817 36.8853Z" fill="#0C54A0"/>
<path fill-rule="evenodd" clip-rule="evenodd" d="M22.8089 37.148L20.0439 37.8933L17.6127 43.8503L15.2027 39.1981L12.4942 39.9282C12.1898 40.0075 11.9434 40.3215 11.9434 40.6276V53.7391C11.9434 54.0449 12.1901 54.2284 12.4942 54.1482L15.2507 53.4058V45.1944L17.6127 49.5982L20.0521 43.7601V52.1112L22.8089 51.3684C23.1132 51.2887 23.3598 50.9759 23.3598 50.67V37.5581C23.3598 37.2523 23.1136 37.0682 22.8089 37.148Z" fill="#0C54A0"/>
</svg>
