<svg width="103" height="103" viewBox="0 0 103 103" fill="none" xmlns="http://www.w3.org/2000/svg">
<path d="M88.337 51.9232C88.337 73.1269 71.1475 90.3163 49.9439 90.3163C28.7402 90.3163 11.5508 73.1269 11.5508 51.9232C11.5508 30.7196 28.7402 13.5302 49.9439 13.5302C71.1475 13.5302 88.337 30.7196 88.337 51.9232Z" fill="white"/>
<path d="M43.7028 46.6907L43.9465 46.8446C44.7887 47.4687 48.6019 49.2214 49.8203 46.152C50.8334 43.6042 51.8508 39.9491 54.8732 39.3293L55.087 39.2865C55.9847 39.1625 56.9295 39.3806 57.7118 39.9705C58.3316 40.445 58.7548 41.0777 58.96 41.7703L58.9686 41.7959C59.1738 42.2918 59.5714 42.6808 60.0544 42.8988L60.5973 43.104C60.8581 43.1938 61.3668 43.3306 61.3668 43.3306C61.4566 43.3648 61.5079 43.3947 61.5079 43.4717C61.5335 43.5657 61.3668 43.6127 61.3668 43.6127C60.0544 44.0573 59.6227 44.348 59.0797 44.7285L58.8788 44.8738C58.6864 45.032 58.5112 45.2158 58.3744 45.4296C58.3744 45.4296 58.1051 45.7545 57.8528 46.8104C57.6049 47.8663 57.6519 48.6187 57.6519 48.6187C57.6519 51.5513 59.2251 54.1248 61.5763 55.527C61.5763 55.527 63.111 56.57 66.5438 57.2797C69.9808 57.985 72.0071 57.985 72.0071 57.985C73.3879 57.985 74.7516 57.9081 76.0939 57.7713C76.4402 56.0528 76.624 54.2744 76.624 52.4533C76.624 37.6706 64.6371 25.6837 49.8502 25.6837C41.9758 25.6837 34.8922 29.0866 29.9932 34.4986C33.9133 39.2267 38.5473 43.3434 43.7028 46.6907Z" fill="#0074BE"/>
<path d="M23.0933 53.2954C23.3113 60.4303 26.3208 66.864 31.0703 71.5365C34.0328 68.9374 37.9016 67.082 37.8888 67.0778C37.8888 67.0778 31.19 63.6279 23.0933 53.2954Z" fill="#0074BE"/>
<path d="M49.6189 72.0196C49.542 74.9051 49.3154 77.0768 48.4946 79.1972C48.9435 79.2185 49.3924 79.2314 49.8412 79.2314C57.8952 79.2314 65.1113 75.6704 70.0189 70.0488C59.7248 72.9344 49.6189 72.0196 49.6189 72.0196Z" fill="#0074BE"/>
<path d="M64.4361 39.5558C64.5473 39.5643 64.6969 39.5387 64.8252 39.3933C65.2099 38.9573 65.7357 37.709 66.4753 37.6919C66.7831 37.6877 66.8857 37.7347 66.8857 37.7347C68.4845 38.1151 69.6344 39.5472 69.6344 39.5472L67.9501 40.4065L64.4361 39.5558C64.3378 39.5515 64.2651 39.5173 64.2651 39.5173L64.4361 39.5558Z" fill="url(#paint0_linear_1_330)"/>
<path d="M64.3122 39.5259L67.9972 40.4066C67.9972 40.4066 67.792 40.351 67.6467 39.9833C67.2748 39.0258 67.2619 37.8117 67.2619 37.8117C67.1764 36.4608 67.3474 34.3661 67.5868 32.3184C66.283 31.1685 64.868 30.1425 63.3589 29.2618C63.2862 33.4983 63.3632 39.2823 64.3122 39.5259Z" fill="url(#paint1_linear_1_330)"/>
<path d="M71.1304 38.7479L66.9067 37.739C66.9067 37.739 67.3642 38.0981 67.3642 39.0087C66.7058 48.4605 70.9337 57.0232 74.6914 62.6404C75.9781 59.5026 76.692 56.0656 76.692 52.4661C76.692 52.3935 76.6878 52.3251 76.6878 52.2524C73.4944 48.3024 71.4852 44.1557 71.5921 40.0175C71.5621 38.9574 71.1304 38.7479 71.1304 38.7479Z" fill="url(#paint2_linear_1_330)"/>
<path d="M64.9232 39.2694C64.7009 38.6752 64.5983 37.8117 64.5342 37.1448C64.3632 35.2296 64.4273 32.4167 64.547 30.0014C64.2819 29.8304 64.0212 29.6551 63.7476 29.4927C63.6621 31.9679 63.6321 34.9304 63.8202 36.9695C63.9015 37.8074 64.0212 38.6538 64.2392 39.1797C64.3247 39.3848 64.4273 39.4917 64.5213 39.5516C64.6196 39.543 64.7265 39.5088 64.8248 39.3977C64.8548 39.3592 64.889 39.3122 64.9232 39.2694ZM65.1968 38.859C65.3678 38.594 65.5559 38.3033 65.7739 38.081C65.744 37.8117 65.7226 37.5808 65.7098 37.4312C65.5772 35.7512 65.7012 33.2204 65.8765 30.9248C65.6114 30.7281 65.3378 30.5358 65.0642 30.3477C64.9146 32.7288 64.8163 35.4391 64.9659 37.2517C65.0044 37.6578 65.06 38.2905 65.1968 38.859ZM66.2142 37.7518C66.2997 37.7134 66.3852 37.692 66.475 37.692C66.7828 37.6877 66.8854 37.7347 66.8854 37.7347C66.9324 37.7433 66.9751 37.7647 67.0222 37.7775C67.0222 37.7732 67.0222 37.7561 67.0222 37.7561C66.9238 36.3326 67.0735 34.1566 67.2872 32.0619C67.0051 31.8225 66.7229 31.5874 66.4322 31.3565C66.2313 33.5838 66.0859 35.982 66.2014 37.5552C66.2014 37.5979 66.2099 37.6663 66.2142 37.7518ZM67.0606 37.9228C66.9922 37.8331 66.9495 37.7732 66.9281 37.7561C66.8683 37.7518 66.7999 37.7476 66.7101 37.7518C65.9705 37.7689 65.4618 39.0343 65.06 39.4575C64.8975 39.6328 64.6581 39.6114 64.5555 39.5943L65.0557 39.714C65.0557 39.714 65.4105 39.8209 65.6072 39.59C65.9577 39.1882 66.4237 38.1152 67.0606 37.9228ZM71.2073 39.9192C71.1774 38.8633 70.7499 38.6538 70.7499 38.6538L70.006 38.4786C70.006 38.4786 70.4378 38.6923 70.4635 39.7439C70.3523 45.1303 72.8959 50.3201 76.5681 54.984C76.6194 54.4027 76.6536 53.817 76.6707 53.2228C73.3106 49.0034 71.1133 44.4891 71.2073 39.9192ZM67.8686 37.9656L67.2359 37.816C67.2359 37.816 67.7617 38.0297 67.6933 39.0813C67.2231 48.375 71.0107 56.1511 75.0505 61.7213C75.2557 61.157 75.4395 60.5885 75.6105 60.0114C71.6348 54.5608 68.1593 47.4217 68.3217 39.2352C68.373 38.0981 67.8729 37.9698 67.8686 37.9656ZM69.3477 38.3204L68.6082 38.1408C68.6082 38.1408 69.0399 38.3546 69.0656 39.4105C68.9245 46.5795 72.0837 53.0646 76.038 58.3484C76.1662 57.7713 76.2816 57.1942 76.3714 56.6042C72.5197 51.6026 69.6812 45.7887 69.8051 39.5858C69.7838 38.5341 69.3477 38.3204 69.3477 38.3204ZM66.0988 39.7012C65.932 39.8765 65.6969 39.8551 65.5943 39.8337L66.0988 39.9534C66.0988 39.9534 66.4536 40.0603 66.6502 39.8337C66.8426 39.6157 67.0692 39.1839 67.3385 38.812C67.3171 38.5726 67.2744 38.3802 67.2145 38.2306C66.7528 38.6196 66.3937 39.3934 66.0988 39.7012ZM66.6374 40.0859L67.1419 40.2056C67.1419 40.2056 67.2231 40.227 67.3257 40.227C67.33 40.0517 67.3342 39.8722 67.3428 39.6926C67.2744 39.791 67.206 39.8807 67.1461 39.9491C66.9751 40.1287 66.7443 40.1073 66.6374 40.0859Z" fill="black"/>
<path d="M19.9809 58.5707L20.2845 59.8275C20.3657 60.1652 20.34 60.4559 20.2118 60.6611C20.1135 60.815 19.9767 60.9176 19.7757 60.9689C19.391 61.063 19.1345 60.8749 18.9806 60.6654C18.9592 61.0416 18.8267 61.3708 18.412 61.4734C17.9076 61.5973 17.5015 61.2425 17.3476 60.597L17.0312 59.2846L19.9809 58.5707ZM17.6468 60.5329C17.7537 60.9817 18.023 61.2083 18.3565 61.1271C18.6771 61.0501 18.7968 60.7338 18.6728 60.2208L18.4463 59.2889L17.4032 59.5411L17.6468 60.5329ZM18.955 60.0926C19.0533 60.4944 19.3012 60.7252 19.6561 60.6397C19.9467 60.5671 20.0793 60.2892 19.9767 59.8703L19.7587 58.9725L18.7412 59.2205L18.955 60.0926Z" fill="#3A3A39"/>
<path d="M18.831 61.8367C19.4338 61.6358 20.0964 61.9351 20.3059 62.5549C20.4384 62.9568 20.3571 63.2646 20.2118 63.5339L19.9297 63.4014C20.0494 63.1748 20.122 62.9311 20.0237 62.6447C19.8784 62.2129 19.4038 62.0035 18.9379 62.1616C18.4762 62.3155 18.224 62.7772 18.3736 63.2218C18.4634 63.4954 18.6728 63.6493 18.908 63.7562L18.784 64.0298C18.4719 63.8972 18.2154 63.6963 18.0829 63.2988C17.8734 62.6789 18.224 62.0377 18.831 61.8367Z" fill="#3A3A39"/>
<path d="M19.6046 64.1067C20.2031 63.8545 20.8614 64.0725 21.1008 64.6411C21.3573 65.2524 21.0196 65.8081 20.4126 66.0689C20.3827 66.0817 20.3527 66.0945 20.3014 66.1116L19.6089 64.4743C19.19 64.7009 19.0745 65.1284 19.2284 65.4918C19.3481 65.7739 19.549 65.9278 19.797 66.0219L19.7072 66.2869C19.3866 66.1758 19.1258 65.9919 18.9591 65.5986C18.7197 65.0301 18.9591 64.3803 19.6046 64.1067ZM20.4211 65.7012C20.7802 65.5089 21.0111 65.1583 20.8401 64.7479C20.6905 64.3931 20.2801 64.2435 19.8611 64.3675L20.4211 65.7012Z" fill="#3A3A39"/>
<path d="M21.6523 66.0304L21.8062 66.3254L21.4086 66.5348C21.7292 66.5733 22.0584 66.7016 22.2465 67.0649C22.4944 67.5394 22.3662 68.2106 21.7036 68.5569C21.0538 68.8946 20.4254 68.6295 20.1731 68.1465C19.9808 67.7788 20.0577 67.4368 20.1988 67.1632L19.2027 67.6848L19.0488 67.3898L21.6523 66.0304ZM21.5497 68.2491C22.0199 68.0054 22.1481 67.5266 21.9515 67.1504C21.7591 66.7828 21.2632 66.5947 20.8058 66.8341C20.3441 67.0735 20.2202 67.5865 20.4125 67.9541C20.6134 68.3389 21.0623 68.5056 21.5497 68.2491Z" fill="#3A3A39"/>
<path d="M21.9303 68.9417C22.4647 68.5997 23.1829 68.7279 23.5462 69.2965C23.9096 69.8651 23.7301 70.5661 23.1871 70.9081C22.6528 71.2501 21.9303 71.1176 21.5669 70.549C21.2079 69.9847 21.3917 69.2879 21.9303 68.9417ZM23.0076 70.6217C23.4137 70.3609 23.5505 69.848 23.2983 69.4504C23.0375 69.04 22.5245 68.9716 22.1184 69.2324C21.7123 69.4931 21.5755 70.0018 21.832 70.3994C22.0885 70.8055 22.6015 70.8825 23.0076 70.6217Z" fill="#3A3A39"/>
<path d="M23.4265 71.2415C23.9309 70.8611 24.6576 70.9295 25.0552 71.451C25.3117 71.7887 25.3288 72.1094 25.2775 72.4086L24.9697 72.3744C25.0125 72.1222 24.9996 71.8657 24.8158 71.6263C24.5422 71.2629 24.025 71.2202 23.6317 71.5151C23.2426 71.8101 23.1529 72.3231 23.435 72.6993C23.606 72.9259 23.854 73.0071 24.1105 73.0327L24.0805 73.332C23.7428 73.3021 23.435 73.1995 23.1828 72.866C22.7895 72.3402 22.9177 71.6263 23.4265 71.2415Z" fill="#3A3A39"/>
<path d="M24.8758 73.1397C25.3503 72.7207 26.0813 72.7378 26.5131 73.2294C26.791 73.5501 26.8337 73.8664 26.8038 74.1657L26.496 74.1528C26.5174 73.8963 26.4875 73.6441 26.2908 73.4175C25.9916 73.0755 25.4743 73.0713 25.1024 73.3919C24.739 73.7125 24.6834 74.234 24.9912 74.5846C25.1793 74.7983 25.4315 74.8625 25.6923 74.871L25.6838 75.1703C25.3461 75.166 25.034 75.0848 24.7561 74.7684C24.3243 74.2811 24.397 73.5586 24.8758 73.1397Z" fill="#3A3A39"/>
<path d="M27.3551 74.2297L27.5945 74.4649L26.3548 75.7345L28.5479 75.3925L28.783 75.6191L27.2184 77.2265L26.979 76.9913L28.2187 75.7217L26.0214 76.0594L25.7905 75.8371L27.3551 74.2297Z" fill="#3A3A39"/>
<path d="M29.2361 76.0294L29.4925 76.2432L28.364 77.6111L30.5228 77.0939L30.775 77.2991L29.3472 79.0261L29.0907 78.8124L30.2193 77.4444L28.0604 77.9617L27.8125 77.7565L29.2361 76.0294ZM30.0654 75.6105L30.2749 75.7216C30.1936 75.8969 30.2107 76.0636 30.3775 76.2004C30.5399 76.3372 30.7066 76.3201 30.8648 76.209L31.0101 76.3928C30.775 76.598 30.4501 76.6194 30.2022 76.4099C29.95 76.2004 29.9072 75.8798 30.0654 75.6105Z" fill="#3A3A39"/>
<path d="M30.48 78.4876C30.8434 77.9703 31.5573 77.8122 32.0917 78.1883C32.4379 78.432 32.5534 78.7313 32.5961 79.0305L32.2926 79.0946C32.2541 78.8381 32.1686 78.603 31.9164 78.4277C31.5445 78.167 31.04 78.2824 30.7579 78.6842C30.48 79.0818 30.5484 79.6033 30.9289 79.8684C31.164 80.0308 31.4205 80.0351 31.677 79.9795L31.7411 80.2745C31.412 80.3515 31.0871 80.3472 30.7451 80.1035C30.215 79.7316 30.1167 79.0091 30.48 78.4876Z" fill="#3A3A39"/>
<path d="M33.1349 78.9578L33.4214 79.1288L32.7587 80.236L34.473 79.7572L34.8278 79.9666L33.5282 80.3172L33.7035 81.8989L33.3658 81.698L33.2076 80.407L32.5535 80.5822L32.2757 81.0482L31.9893 80.8772L33.1349 78.9578Z" fill="#3A3A39"/>
<path d="M34.3702 81.0012C34.6523 80.4369 35.3363 80.1761 35.9391 80.4796C36.5376 80.7831 36.7428 81.4757 36.4563 82.0485C36.1742 82.6128 35.4859 82.8693 34.8832 82.5658C34.2804 82.2665 34.0838 81.574 34.3702 81.0012ZM36.1528 81.8946C36.3666 81.4629 36.2255 80.9499 35.8023 80.7404C35.3662 80.5224 34.8917 80.7233 34.678 81.1551C34.4642 81.5868 34.6053 82.0913 35.0285 82.305C35.4603 82.523 35.9348 82.3221 36.1528 81.8946Z" fill="#3A3A39"/>
<path d="M36.8367 82.211C37.0804 81.6083 37.696 81.2962 38.2731 81.527C38.8887 81.775 39.0426 82.4077 38.7989 83.019C38.7861 83.0446 38.7733 83.0788 38.7519 83.1259L37.1018 82.459C36.9693 82.9164 37.1873 83.2969 37.5549 83.4465C37.8414 83.5619 38.0893 83.5277 38.3287 83.4166L38.4527 83.6688C38.1491 83.8184 37.8328 83.874 37.4395 83.7115C36.8624 83.485 36.576 82.8608 36.8367 82.211ZM38.5382 82.7539C38.6536 82.3607 38.5681 81.9503 38.1577 81.7878C37.7986 81.6425 37.4053 81.8306 37.2001 82.2153L38.5382 82.7539Z" fill="#3A3A39"/>
<path d="M40.1415 83.4679C40.3082 82.8566 40.928 82.4718 41.5821 82.6514C42.2276 82.8309 42.5653 83.4722 42.3943 84.092C42.2276 84.7033 41.6035 85.0881 40.9494 84.9085C40.2996 84.7247 39.9705 84.0835 40.1415 83.4679ZM42.0609 83.998C42.1892 83.532 41.9455 83.0575 41.4923 82.9335C41.0264 82.8053 40.5989 83.096 40.4706 83.5577C40.3424 84.0193 40.5818 84.4939 41.0349 84.6178C41.5052 84.7461 41.9327 84.4639 42.0609 83.998Z" fill="#3A3A39"/>
<path d="M42.8776 84.1091C43.0101 83.3952 43.1939 82.7241 43.9933 82.6856L45.2758 82.6257L45.2886 82.9164L44.0403 82.9891C43.5616 83.019 43.3649 83.237 43.2495 83.6517C43.4504 83.4209 43.7839 83.2584 44.2498 83.3439C44.8269 83.4508 45.216 84.0322 45.1048 84.6349C44.9894 85.2505 44.4165 85.678 43.7625 85.5583C43.0956 85.4301 42.7365 84.8743 42.8776 84.1091ZM44.7628 84.5794C44.8483 84.1177 44.5747 83.6816 44.1301 83.6004C43.6727 83.5149 43.2794 83.827 43.1939 84.2844C43.1084 84.7461 43.3863 85.1821 43.8266 85.2634C44.284 85.3489 44.6773 85.0368 44.7628 84.5794Z" fill="#3A3A39"/>
<path d="M48.8794 86.0926L45.686 85.8447L45.8613 83.6089L46.1947 83.6345L46.0451 85.5753L47.1352 85.6609L47.2849 83.72L47.6183 83.7457L47.4687 85.6865L48.5588 85.772L48.7084 83.8312L49.0461 83.8568L48.8965 85.7976L49.2342 85.8233L49.1145 86.6697L48.8367 86.6484L48.8794 86.0926Z" fill="#3A3A39"/>
<path d="M49.636 84.9726C49.6232 84.3228 50.0678 83.7927 50.6876 83.7799C51.3503 83.7671 51.7435 84.2886 51.7564 84.947C51.7564 84.9769 51.7564 85.0111 51.7564 85.0624L49.978 85.1009C50.0379 85.5711 50.3884 85.8361 50.7817 85.8276C51.0895 85.819 51.3032 85.6908 51.4828 85.4941L51.6965 85.678C51.4785 85.9345 51.2049 86.1097 50.7817 86.1183C50.1661 86.1311 49.6531 85.6694 49.636 84.9726ZM51.4144 84.7973C51.3674 84.3912 51.1237 84.0492 50.6834 84.0578C50.2986 84.0663 50.0079 84.3955 49.9737 84.8272L51.4144 84.7973Z" fill="#3A3A39"/>
<path d="M52.1197 84.9C52.0598 84.2673 52.5002 83.6859 53.1542 83.6261C53.5774 83.5876 53.8596 83.7372 54.0862 83.9381L53.8938 84.1818C53.6971 84.0151 53.4791 83.8911 53.1756 83.921C52.7225 83.9638 52.4147 84.3827 52.4617 84.8701C52.5087 85.3531 52.8977 85.7037 53.3637 85.6609C53.6501 85.6353 53.8468 85.4685 54.0049 85.2591L54.2443 85.4386C54.0434 85.7122 53.7955 85.9174 53.3765 85.9559C52.7267 86.02 52.1838 85.5369 52.1197 84.9Z" fill="#3A3A39"/>
<path d="M55.0142 83.7285L54.2233 83.8611L54.1763 83.5704L56.0914 83.254L56.1385 83.5447L55.3476 83.6772L55.6682 85.5967L55.3348 85.6523L55.0142 83.7285Z" fill="#3A3A39"/>
<path d="M56.3774 83.1899L57.4333 82.9377C57.8694 82.8351 58.1986 82.9805 58.2755 83.3096C58.3439 83.596 58.1943 83.7799 58.0318 83.8996C58.3097 83.9081 58.5662 84.015 58.6431 84.3228C58.7329 84.6904 58.4722 84.9939 57.9934 85.1051L56.899 85.3659L56.3774 83.1899ZM57.5958 83.891C57.8566 83.8269 58.0105 83.6644 57.9549 83.4336C57.9121 83.2541 57.7283 83.16 57.4462 83.2284L56.7665 83.3909L56.9246 84.0492L57.5958 83.891ZM57.8822 84.8443C58.1943 84.7717 58.3525 84.5836 58.2969 84.357C58.2456 84.1475 58.0276 84.0663 57.6727 84.1475L56.9888 84.31L57.1555 85.0153L57.8822 84.8443Z" fill="#3A3A39"/>
<path d="M58.8957 83.7329C58.699 83.113 58.9726 82.4803 59.5626 82.288C60.1953 82.087 60.7211 82.4761 60.9177 83.1002C60.9263 83.1301 60.9391 83.1643 60.9476 83.2113L59.2548 83.7543C59.4429 84.1903 59.8575 84.3442 60.2337 84.2245C60.5287 84.1305 60.6954 83.9466 60.8108 83.7072L61.0673 83.8227C60.9305 84.1305 60.7211 84.3741 60.315 84.5066C59.7293 84.6947 59.1052 84.3998 58.8957 83.7329ZM60.5501 83.0617C60.3876 82.6855 60.0585 82.4248 59.6395 82.5616C59.2719 82.677 59.088 83.0746 59.1735 83.502L60.5501 83.0617Z" fill="#3A3A39"/>
<path d="M60.9902 81.8604L61.298 81.7322L61.6657 82.6256L62.8627 82.134L62.495 81.2405L62.8028 81.1123L63.6535 83.1899L63.3457 83.3182L62.9738 82.4119L61.7768 82.9035L62.1487 83.8098L61.8409 83.938L60.9902 81.8604Z" fill="#3A3A39"/>
<path d="M63.3457 80.8601L63.645 80.7062L64.0853 81.5698L65.2352 80.9798L64.7949 80.1163L65.0942 79.9624L66.1159 81.9588L65.8166 82.1127L65.372 81.2406L64.2221 81.8305L64.6667 82.7026L64.3674 82.8565L63.3457 80.8601Z" fill="#3A3A39"/>
<path d="M66.1032 80.6977C65.7698 80.1591 65.9066 79.4409 66.4794 79.0861C67.0522 78.7313 67.749 78.9194 68.0868 79.4666C68.4202 80.0052 68.2791 80.7234 67.7063 81.0825C67.1377 81.4373 66.4409 81.2449 66.1032 80.6977ZM67.7961 79.6461C67.5438 79.2357 67.0266 79.0904 66.6247 79.3426C66.2101 79.5991 66.1374 80.1121 66.3896 80.5182C66.6418 80.9286 67.1506 81.0696 67.5524 80.8217C67.9713 80.5652 68.0526 80.0565 67.7961 79.6461Z" fill="#3A3A39"/>
<path d="M68.4241 79.2313C68.0394 78.7098 68.095 78.0173 68.5951 77.6496C69.1295 77.2563 69.7494 77.453 70.1427 77.9831C70.1598 78.0087 70.1811 78.0344 70.2068 78.0814L68.7747 79.1373C69.0953 79.4878 69.5356 79.5049 69.852 79.2698C70.0999 79.086 70.1982 78.8552 70.2324 78.5944L70.5103 78.62C70.4804 78.9577 70.3607 79.257 70.0187 79.5092C69.5228 79.8769 68.8388 79.7914 68.4241 79.2313ZM69.7793 78.0643C69.5057 77.7608 69.1124 77.6197 68.7533 77.8805C68.4412 78.1113 68.3942 78.5431 68.6165 78.9193L69.7793 78.0643Z" fill="#3A3A39"/>
<path d="M71.6134 77.8249L71.793 77.6624C71.6989 77.2948 71.4681 76.8716 70.9594 76.3159L70.6943 76.0294L71.8657 74.9479L73.1823 76.38L73.4303 76.1491L73.9689 76.8117L73.7637 76.9998L73.3833 76.5894L72.0495 77.8163L72.3829 78.2695L72.182 78.4533L71.6134 77.8249ZM72.9387 76.6023L71.8186 75.3882L71.1261 76.0252L71.3356 76.256C71.7118 76.6621 71.9683 77.1024 72.0495 77.4188L72.9387 76.6023Z" fill="#3A3A39"/>
<path d="M72.3232 74.4905L73.0628 73.6953C73.3663 73.3662 73.7254 73.3106 73.9734 73.5372C74.1914 73.7381 74.1657 73.9732 74.0973 74.1613C74.3325 74.016 74.6103 73.9604 74.8412 74.1784C75.119 74.4349 75.072 74.8282 74.7343 75.1916L73.9691 76.0123L72.3232 74.4905ZM73.7254 74.3964C73.9092 74.1998 73.9434 73.9775 73.7724 73.8193C73.6356 73.6911 73.4347 73.7167 73.2381 73.9305L72.7636 74.4434L73.2595 74.9051L73.7254 74.3964ZM74.4906 75.0291C74.7087 74.794 74.7386 74.5546 74.5633 74.3921C74.4051 74.2425 74.1743 74.2981 73.9263 74.5674L73.4475 75.0804L73.9776 75.572L74.4906 75.0291Z" fill="#3A3A39"/>
<path d="M73.9346 72.7292L74.144 72.4684L75.5334 73.5713L74.9691 71.4253L75.17 71.1688L76.927 72.5625L76.7175 72.8232L75.3282 71.7203L75.8882 73.8663L75.6873 74.1185L73.9346 72.7292Z" fill="#3A3A39"/>
<path d="M76.7304 70.6259L75.4521 70.8397L75.6702 70.502L77.3801 70.2455L76.2858 69.5444L76.4653 69.2622L77.5597 69.9633L77.0809 68.3004L77.2989 67.9626L77.6324 69.2152L79.2098 69.134L79.0003 69.4631L77.7179 69.5273L77.8931 70.1813L78.3548 70.4763L78.1753 70.7584L77.7179 70.4635L77.051 70.5746L77.5255 71.7673L77.316 72.0965L76.7304 70.6259Z" fill="#3A3A39"/>
<path d="M78.3378 68.3518C77.7607 68.0525 77.5084 67.407 77.7949 66.8555C78.1027 66.2656 78.7482 66.1716 79.3296 66.4751C79.3552 66.4879 79.3894 66.505 79.4322 66.5349L78.6114 68.1124C79.0517 68.2876 79.4535 68.1081 79.6374 67.7575C79.7784 67.484 79.7656 67.236 79.6801 66.9838L79.9409 66.8855C80.0606 67.2018 80.0862 67.5224 79.8896 67.8986C79.6117 68.4458 78.9577 68.6724 78.3378 68.3518ZM79.0431 66.7059C78.6627 66.552 78.248 66.599 78.0428 66.9923C77.8633 67.3343 78.0129 67.7447 78.3763 67.9884L79.0431 66.7059Z" fill="#3A3A39"/>
<path d="M78.5049 65.5516L78.6331 65.2438L79.5266 65.62L80.031 64.4273L79.1376 64.0511L79.2658 63.7433L81.3349 64.6154L81.2066 64.9232L80.3046 64.5427L79.8002 65.7354L80.7022 66.1159L80.5739 66.4237L78.5049 65.5516Z" fill="#3A3A39"/>
<path d="M79.4795 63.1833L79.5821 62.867L81.2664 63.4185L79.9925 61.6016L80.0951 61.2938L82.2283 61.9906L82.1257 62.307L80.4371 61.7555L81.7067 63.5766L81.6084 63.8801L79.4795 63.1833Z" fill="#3A3A39"/>
<path d="M81.3175 61.11C80.6848 60.9561 80.2873 60.3918 80.4283 59.789C80.5822 59.1435 81.1893 58.8956 81.8262 59.0495C81.8562 59.058 81.8904 59.0666 81.9374 59.0794L81.5227 60.8065C81.993 60.8706 82.3392 60.597 82.4333 60.2123C82.5059 59.913 82.4333 59.6736 82.2922 59.4513L82.523 59.2932C82.7154 59.571 82.8137 59.8788 82.7154 60.2892C82.5743 60.8962 81.9972 61.2767 81.3175 61.11ZM81.6039 59.3487C81.1978 59.2932 80.8088 59.4385 80.7019 59.866C80.6122 60.2422 80.8558 60.6013 81.2662 60.7509L81.6039 59.3487Z" fill="#3A3A39"/>
<path d="M13.479 50.7262L13.7868 47.9604C13.8637 47.2806 14.1117 46.7634 14.4879 46.4599C14.7914 46.2162 15.1377 46.1179 15.5652 46.1649C16.2363 46.2418 16.574 46.6394 16.7621 47.0926C17.1041 46.4342 17.553 46.0537 18.3695 46.1435C19.4596 46.2675 19.9042 47.2122 19.7546 48.5546L19.4382 51.3888L13.479 50.7262ZM16.1637 48.5118C16.2278 47.9347 16.0824 47.5457 15.6207 47.4944C15.2274 47.4516 14.9752 47.7338 14.9111 48.2853L14.7658 49.5806L16.0269 49.7216L16.1637 48.5118ZM18.6046 48.4306C18.6688 47.8535 18.502 47.4816 18.0446 47.4303C17.6471 47.3832 17.3649 47.6568 17.288 48.328L17.117 49.8456L18.4294 49.991L18.6046 48.4306Z" fill="#3A3A39"/>
<path d="M17.1937 45.0107C15.5778 44.4763 14.6715 42.762 15.2529 41.0051C15.8343 39.2481 17.5571 38.423 19.1901 38.9616C20.806 39.496 21.7123 41.2103 21.1309 42.9672C20.5538 44.7242 18.8267 45.5536 17.1937 45.0107ZM18.7583 40.274C17.7836 39.9534 16.732 40.398 16.3986 41.4069C16.0651 42.4158 16.6294 43.3776 17.6212 43.7068C18.5959 44.0274 19.6475 43.5828 19.9767 42.574C20.3187 41.5651 19.7501 40.6032 18.7583 40.274Z" fill="#3A3A39"/>
<path d="M19.635 32.1133L24.8291 35.11L24.1707 36.2514L20.0112 33.8489L19.1477 35.3494L19.541 35.576C22.5975 37.3372 23.0892 38.2863 22.4052 39.4704C22.2983 39.6542 22.1102 39.915 21.9905 40.0347L21.0928 39.4191C21.1312 39.3721 21.1654 39.3251 21.2082 39.2481C21.563 38.6325 21.3706 38.0554 18.5748 36.4438L17.4976 35.8239L19.635 32.1133Z" fill="#3A3A39"/>
<path d="M22.9691 32.4852C21.7038 31.3438 21.567 29.4072 22.811 28.035C24.0507 26.6627 25.9616 26.6029 27.2398 27.7528C28.5052 28.8942 28.6377 30.8265 27.398 32.203C26.1625 33.5753 24.2474 33.6351 22.9691 32.4852ZM26.3164 28.7788C25.5555 28.0906 24.4141 28.0734 23.7002 28.8643C22.9905 29.6509 23.1188 30.7624 23.8925 31.4635C24.6577 32.1517 25.7949 32.1646 26.5088 31.378C27.2227 30.5871 27.0944 29.4799 26.3164 28.7788Z" fill="#3A3A39"/>
<path d="M26.5391 24.4783L27.6078 23.7045L28.9971 25.6282L30.9679 24.2047L29.5785 22.281L30.6473 21.5072L34.157 26.3678L33.0882 27.1416L31.6775 25.1922L29.7068 26.6157L31.1175 28.5651L30.0488 29.3389L26.5391 24.4783Z" fill="#3A3A39"/>
<path d="M34.2807 20.9686L32.6305 21.7466L32.1133 20.6479L36.6062 18.5276L37.1235 19.6262L35.4734 20.4043L37.5125 24.7262L36.3198 25.2905L34.2807 20.9686Z" fill="#3A3A39"/>
<path d="M38.1582 17.9804L42.5229 16.7834L42.835 17.9162L39.7356 18.7669L40.0563 19.9383L42.7837 19.1902L43.0957 20.323L40.3683 21.0711L40.7018 22.2852L43.8396 21.4259L44.1516 22.5588L39.7485 23.7643L38.1582 17.9804ZM38.3976 16.2276L39.6031 15.8985L39.9109 17.0142L38.7054 17.3434L38.3976 16.2276ZM40.1631 15.7446L41.3687 15.4154L41.6765 16.5312L40.4709 16.8603L40.1631 15.7446Z" fill="#3A3A39"/>
<path d="M44.3398 16.4798L46.7808 16.2533C48.2044 16.1207 49.1449 16.8859 49.2603 18.1214C49.3885 19.5022 48.3796 20.3187 47.0416 20.4427L46.0455 20.5367L46.2123 22.3279L44.8999 22.4476L44.3398 16.4798ZM46.9732 19.2713C47.6315 19.2115 47.9778 18.784 47.9265 18.2539C47.8709 17.664 47.4349 17.3861 46.7765 17.4502L45.7634 17.5443L45.9301 19.3697L46.9732 19.2713Z" fill="#3A3A39"/>
<path d="M50.8544 15.984L52.1625 16.1422L51.9189 18.1642L53.1843 18.3181C54.5608 18.4848 55.2704 19.3441 55.1293 20.5112C54.984 21.7338 54.0221 22.4049 52.6285 22.2382L50.1362 21.939L50.8544 15.984ZM51.7864 19.2885L51.5897 20.913L52.7568 21.0541C53.4023 21.131 53.7699 20.8916 53.834 20.3402C53.8939 19.84 53.5989 19.5108 52.9449 19.4296L51.7864 19.2885ZM56.2707 16.6381L57.5831 16.7962L56.865 22.7512L55.5568 22.593L56.2707 16.6381Z" fill="#3A3A39"/>
<path d="M62.4268 18.271L66.9925 20.3187L64.5386 25.7906L63.3331 25.2519L65.2996 20.8659L63.1407 19.8997L61.1743 24.2858L59.9688 23.7472L62.4268 18.271Z" fill="#3A3A39"/>
<path d="M66.9669 23.6745C67.9758 22.3023 69.8824 21.9688 71.3743 23.0632C72.8663 24.1576 73.1228 26.0514 72.1053 27.4407C71.0965 28.813 69.1898 29.1464 67.6979 28.052C66.206 26.9577 65.9495 25.0639 66.9669 23.6745ZM70.9896 26.6242C71.5966 25.7949 71.494 24.662 70.6391 24.0336C69.7841 23.4052 68.694 23.6489 68.0784 24.491C67.4713 25.3204 67.5739 26.4532 68.4289 27.0816C69.2839 27.7058 70.374 27.4664 70.9896 26.6242Z" fill="#3A3A39"/>
<path d="M74.4909 28.8686L75.5511 30.0442C76.4574 31.0488 76.4146 32.1005 75.5853 32.8528C74.679 33.6736 73.606 33.4984 72.674 32.4681L70.8145 30.4076L75.2646 26.3892L78.3469 29.8005L77.462 30.6L75.2646 28.1675L74.4909 28.8686ZM73.6787 29.6039L72.5843 30.5914L73.559 31.673C73.9736 32.1304 74.3498 32.1945 74.7388 31.844C75.0808 31.5362 75.0637 31.1471 74.6448 30.6812L73.6787 29.6039Z" fill="#3A3A39"/>
<path d="M79.629 31.5319L82.0102 35.375L81.0141 35.9906L79.3255 33.2632L78.291 33.9044L79.7787 36.3069L78.7826 36.9225L77.2949 34.52L76.2262 35.1826L77.9362 37.9485L76.9401 38.5641L74.5376 34.6868L79.629 31.5319Z" fill="#3A3A39"/>
<path d="M78.1673 38.2136L78.3683 38.7394C79.4968 38.7864 80.5228 38.624 82.4337 37.893L83.0878 37.6407L84.6438 41.7105L80.1594 43.4247L80.4159 44.0959L78.0776 44.8055L77.6843 43.7753L78.8513 43.3307L77.5133 39.8295L76.3163 40.1971L75.8931 39.0857L78.1673 38.2136ZM82.4337 39.2524L81.8651 39.4704C80.681 39.9236 79.7619 40.0604 78.8641 40.039L79.6892 42.1978L83.0621 40.9111L82.4337 39.2524Z" fill="#3A3A39"/>
<path d="M85.3876 44.1429L85.5671 45.4511L83.5494 45.7289L83.7246 46.9943C83.9127 48.3666 83.2587 49.2686 82.0959 49.431C80.8733 49.5977 79.9841 48.8411 79.7917 47.4475L79.4497 44.9637L85.3876 44.1429ZM86.1271 49.5464L86.3067 50.8546L80.3688 51.6668L80.1893 50.3587L86.1271 49.5464ZM82.4293 45.8786L80.8091 46.1009L80.9673 47.2636C81.0571 47.9091 81.382 48.1998 81.9334 48.1272C82.4336 48.0588 82.6773 47.6869 82.5875 47.0371L82.4293 45.8786Z" fill="#3A3A39"/>
<defs>
<linearGradient id="paint0_linear_1_330" x1="66.4855" y1="37.671" x2="67.2119" y2="40.5842" gradientUnits="userSpaceOnUse">
<stop stop-color="#FBB815"/>
<stop offset="0.0495" stop-color="#FFF0D9"/>
<stop offset="0.2462" stop-color="#FFE074"/>
<stop offset="0.3034" stop-color="#F6CB5E"/>
<stop offset="0.4036" stop-color="#E9A93D"/>
<stop offset="0.4834" stop-color="#E1952A"/>
<stop offset="0.5323" stop-color="#DE8D23"/>
<stop offset="0.5603" stop-color="#E09127"/>
<stop offset="0.5953" stop-color="#E59F33"/>
<stop offset="0.6341" stop-color="#EDB548"/>
<stop offset="0.6753" stop-color="#F9D265"/>
<stop offset="0.6925" stop-color="#FFE074"/>
<stop offset="0.957" stop-color="#DE7617"/>
<stop offset="1" stop-color="#DE7617"/>
</linearGradient>
<linearGradient id="paint1_linear_1_330" x1="66.5629" y1="29.8311" x2="64.7973" y2="39.8447" gradientUnits="userSpaceOnUse">
<stop stop-color="#FBB815"/>
<stop offset="0.0495" stop-color="#FFF0D9"/>
<stop offset="0.2462" stop-color="#FFE074"/>
<stop offset="0.3034" stop-color="#F6CB5E"/>
<stop offset="0.4036" stop-color="#E9A93D"/>
<stop offset="0.4834" stop-color="#E1952A"/>
<stop offset="0.5323" stop-color="#DE8D23"/>
<stop offset="0.5603" stop-color="#E09127"/>
<stop offset="0.5953" stop-color="#E59F33"/>
<stop offset="0.6341" stop-color="#EDB548"/>
<stop offset="0.6753" stop-color="#F9D265"/>
<stop offset="0.6925" stop-color="#FFE074"/>
<stop offset="0.957" stop-color="#DE7617"/>
<stop offset="1" stop-color="#DE7617"/>
</linearGradient>
<linearGradient id="paint2_linear_1_330" x1="73.5019" y1="39.2582" x2="68.438" y2="61.1924" gradientUnits="userSpaceOnUse">
<stop stop-color="#FBB815"/>
<stop offset="0.0495" stop-color="#FFF0D9"/>
<stop offset="0.2462" stop-color="#FFE074"/>
<stop offset="0.3034" stop-color="#F6CB5E"/>
<stop offset="0.4036" stop-color="#E9A93D"/>
<stop offset="0.4834" stop-color="#E1952A"/>
<stop offset="0.5323" stop-color="#DE8D23"/>
<stop offset="0.5603" stop-color="#E09127"/>
<stop offset="0.5953" stop-color="#E59F33"/>
<stop offset="0.6341" stop-color="#EDB548"/>
<stop offset="0.6753" stop-color="#F9D265"/>
<stop offset="0.6925" stop-color="#FFE074"/>
<stop offset="0.957" stop-color="#DE7617"/>
<stop offset="1" stop-color="#DE7617"/>
</linearGradient>
</defs>
</svg>
